<svg xmlns="http://www.w3.org/2000/svg" viewBox="0 0 383.17 383.1"><defs><style>.cls-1{fill:#050403;}.cls-2{fill:#13704f;}.cls-3{fill:#f9ba6e;}.cls-4{fill:#fefefe;}.cls-5{fill:#fde6d7;}</style></defs><g id="Layer_2" data-name="Layer 2"><g id="Isolation_Mode" data-name="Isolation Mode"><path class="cls-1" d="M3.72,382.73c-4.11-3.15-4.52-4.58-2.66-9.5q27.23-71.73,54.4-143.49a11.77,11.77,0,0,1,5.66-6.5c18.25-10.14,36.38-20.5,54.63-30.63,2.5-1.4,2.64-2.3,1.11-4.68-6.34-9.81-12.81-19.58-18.54-29.75-36-64,3.64-145.61,76.19-156.88,56.74-8.81,110.07,28,121.29,84.06,5.56,27.77.65,53.93-14.36,78.06-5.12,8.24-10.19,16.51-15.56,24.58-1.69,2.53-1,3.34,1.26,4.62,18,10,36,20.23,54,30.24a13.22,13.22,0,0,1,6.37,7.32q26.72,70.72,53.65,141.37c.4,1,.23,2.47,1.66,3v.75c0,2.49,1,5.95-.28,7.2s-4.71.27-7.2.27c-.15-.18-.26-.44-.45-.55Q331.2,357.6,287.55,333c-2.33-1.32-4-1.41-6.34-.08-20.4,11.62-40.9,23.05-61.3,34.68-8.79,5-17.89,9.46-26.27,15.16h-4.49c-.2-.25-.34-.6-.6-.75q-44-24.8-88-49.63c-1.93-1.09-3.13-.55-4.68.32-12.32,7-24.67,13.9-37,20.87Q33.17,368.12,7.46,382.73ZM113.43,253.45c-3.69-1.53-4.88-4.14-3.93-8.07,1.46-6,2.66-12.13,3.93-18.21,1.57-7.45,3.11-14.91,4.73-22.76-.94.41-1.41.56-1.83.8q-24,13.53-48,27a6.3,6.3,0,0,0-3,3.56Q41.53,298.62,17.71,361.41c-.29.75-.92,1.48-.18,2.44q37-20.87,74-41.66c1.82-1,2.18-2.49,2.54-4.19,3.41-16,6.87-32.05,10.21-48.1.8-3.87,2.77-6,6.85-5.79,4.3,2.24,5.06,3.72,4.1,8.28-3.22,15.2-6.48,30.4-9.67,45.62-.41,1.95-1.24,3.77,1.48,5.29q38.13,21.26,76.08,42.83c2.06,1.17,2.72.92,2.71-1.57q-.08-35.88,0-71.77a3,3,0,0,0-1.94-3.16c-3.41-1.55-5.66-4.32-7.62-7.45q-22.26-35.4-44.62-70.73c-.68-1.07-1.17-2.36-2.71-3.24-2.82,13.23-5.53,26.09-8.32,38.94C119.55,252.18,118.41,253.1,113.43,253.45ZM96.14,106.51a91.73,91.73,0,0,0,13.78,49.33q37.79,60.27,75.83,120.38c3.47,5.5,7.79,5.5,11.26,0q37.76-59.85,75.42-119.76c12.07-19.3,16.25-40.45,13.27-63-6.87-52-55.84-89-107.74-81.44A95.45,95.45,0,0,0,96.14,106.51Zm101,260.71c1.7-.9,2.79-1.45,3.85-2.06,24.36-13.72,48.68-27.5,73.1-41.11,2.85-1.59,3.61-3.05,2.9-6.34-6.53-30-12.83-60-19.2-90-1.35-6.35-2.75-12.69-4.26-19.69-1.11,1.72-1.79,2.76-2.45,3.8q-22,34.85-44,69.71c-1.87,3-3.71,6.11-7,7.57-2.71,1.19-3,2.94-3,5.52.12,12.33.05,24.66.05,37ZM366,363.72c-.45-1.26-.76-2.2-1.11-3.12q-23.65-62.39-47.26-124.78a7.74,7.74,0,0,0-3.9-4.19q-23.08-13-46.15-26c-.87-.49-1.66-1.44-3.05-1.06.14.91.22,1.77.4,2.6q11.79,55.44,23.55,110.89a6.08,6.08,0,0,0,3.21,4.57q35.65,19.92,71.21,40A4.67,4.67,0,0,0,366,363.72Z"/><path class="cls-2" d="M96.14,106.51A95.45,95.45,0,0,1,178,12c51.9-7.56,100.87,29.44,107.74,81.44,3,22.55-1.2,43.7-13.27,63q-37.52,60-75.42,119.76c-3.47,5.48-7.79,5.48-11.26,0q-38-60.17-75.83-120.38A91.73,91.73,0,0,1,96.14,106.51Zm33.54-.22a61.71,61.71,0,1,0,62.07-61.52A61.86,61.86,0,0,0,129.68,106.29Z"/><path class="cls-3" d="M113.43,253.45c5-.35,6.12-1.27,7.21-6.3,2.79-12.85,5.5-25.71,8.32-38.94,1.54.88,2,2.17,2.71,3.24q22.34,35.36,44.62,70.73c2,3.13,4.21,5.9,7.62,7.45a3,3,0,0,1,1.94,3.16q0,35.9,0,71.77c0,2.49-.65,2.74-2.71,1.57q-38-21.5-76.08-42.83c-2.72-1.52-1.89-3.34-1.48-5.29,3.19-15.22,6.45-30.42,9.67-45.62,1-4.56.2-6-4.09-8.28Q112.3,258.78,113.43,253.45Z"/><path class="cls-4" d="M197.18,367.22V331.59c0-12.34.07-24.67-.05-37,0-2.58.32-4.33,3-5.52,3.27-1.46,5.11-4.6,7-7.57q22-34.87,44-69.71c.66-1,1.34-2.08,2.45-3.8,1.51,7,2.91,13.34,4.26,19.69,6.37,30,12.67,60,19.2,90,.71,3.29,0,4.75-2.9,6.34-24.42,13.61-48.74,27.39-73.1,41.11C200,365.77,198.88,366.32,197.18,367.22Z"/><path class="cls-4" d="M113.43,253.45q-1.12,5.32-2.26,10.66c-4.09-.2-6.06,1.92-6.86,5.79C101,286,97.51,302,94.1,318c-.36,1.7-.72,3.17-2.54,4.19q-37.05,20.74-74,41.66c-.74-1-.11-1.69.18-2.44Q41.52,298.61,65.32,235.8a6.3,6.3,0,0,1,3-3.56q24.06-13.44,48-27c.42-.24.89-.39,1.83-.8-1.62,7.85-3.16,15.31-4.73,22.76-1.27,6.08-2.47,12.17-3.93,18.21C108.55,249.31,109.74,251.92,113.43,253.45Z"/><path class="cls-3" d="M366,363.72a4.67,4.67,0,0,1-3.1-1.06q-35.6-20-71.21-40a6.08,6.08,0,0,1-3.21-4.57Q276.8,262.62,265,207.18c-.18-.83-.26-1.69-.4-2.6,1.39-.38,2.18.57,3.05,1.06q23.1,13,46.15,26a7.74,7.74,0,0,1,3.9,4.19q23.57,62.42,47.26,124.78C365.28,361.52,365.59,362.46,366,363.72Z"/><path class="cls-1" d="M129.68,106.29A61.71,61.71,0,1,1,191,168.15,61.81,61.81,0,0,1,129.68,106.29Zm11.28.35A50.44,50.44,0,1,0,191,56,50.5,50.5,0,0,0,141,106.64Z"/><path class="cls-4" d="M141,106.64a50.44,50.44,0,1,1,50.8,50.28A50.5,50.5,0,0,1,141,106.64Zm11.21-.19a39.22,39.22,0,1,0,39.14-39.24A39.34,39.34,0,0,0,152.17,106.45Z"/><path class="cls-1" d="M152.17,106.45a39.22,39.22,0,1,1,39.12,39.26A39.32,39.32,0,0,1,152.17,106.45Zm67.18,0a28,28,0,1,0-28,28A28,28,0,0,0,219.35,106.49Z"/><path class="cls-5" d="M219.35,106.49A28,28,0,1,1,191.4,78.41,28,28,0,0,1,219.35,106.49Z"/></g></g></svg>