<svg xmlns="http://www.w3.org/2000/svg" viewBox="0 0 383.11 383.13"><defs><style>.cls-1{fill:#0a0909;}.cls-2{fill:#fde6d7;}.cls-3{fill:#f9ba6e;}.cls-4{fill:#13704f;}.cls-5{fill:#f8c9ab;}.cls-6{fill:#fefefe;}</style></defs><g id="Layer_2" data-name="Layer 2"><g id="Isolation_Mode" data-name="Isolation Mode"><path class="cls-1" d="M247.66,6C248.54,1.24,249.9,0,254.59,0q13.08,0,26.17,0c5.43,0,7.3,1.92,7.31,7.51,0,12.46.08,24.93-.06,37.39,0,2.48.67,3.14,3.09,3,4.86-.19,9.72-.09,14.58,0,4.67,0,6.8,1.93,6.88,6.44.11,7.23,0,14.46,0,21.69a8.14,8.14,0,0,1-.95,4c-.24.44-.44.89-.66,1.34-3.69,7.6-8.83,14.86-10.67,22.89s-.54,17.09-.56,25.69c0,12,.1,23.93-.08,35.9,0,2.86.78,3.47,3.52,3.45,21.06-.12,42.13-.06,63.19-.08a10.74,10.74,0,0,1,5.77,1.14c2.69,1.63,3.23,4.42,1.39,8.25q-5,10.41-10.22,20.73A12.34,12.34,0,0,0,362,205q0,81.71-.05,163.42c0,2.87.76,3.59,3.5,3.41,3.72-.25,7.47,0,11.21-.08,2.73,0,4.92.7,6,3.46s.24,5.09-2,7a2.54,2.54,0,0,0-.45.81q-187.74,0-375.48.11c-3.84,0-5.27-.78-4.5-4.61a15.57,15.57,0,0,0,0-3,7.18,7.18,0,0,1,7.41-3.8c3.47.25,7-.21,10.46.13,3.1.31,3.33-1,3.32-3.58-.09-19.57-.05-39.14-.05-58.71q0-51,.05-102.09a18,18,0,0,0-2-8.54c-3.29-6.41-6.42-12.9-9.59-19.37-3.28-6.67-1-10.36,6.32-10.37,21.31,0,42.62-.06,63.93.06,2.92,0,3.7-.73,3.68-3.67-.14-19.57-.09-39.14,0-58.71a11.43,11.43,0,0,0-1.26-5.36C79,94.76,75.69,88,72.31,81.17a12.47,12.47,0,0,1-1.52-5.7c0-6.86,0-13.71,0-20.57.05-5,2.05-6.95,7.1-7,4.86,0,9.72-.14,14.57,0,2.32.09,2.91-.56,2.89-2.87-.12-12.34-.06-24.68-.06-37C95.33,1.74,97,0,103.21,0H216.12c5.1,0,6.4,1.09,7.29,6-.66,3.84-3,5.36-6.82,5.32-10-.12-19.94,0-29.91,0-25.54,0-51.09,0-76.63-.06-2.65,0-3.64.42-3.58,3.39.22,10.21.14,20.44,0,30.65,0,2.11.53,2.82,2.69,2.74,4.35-.16,8.72-.13,13.08,0,1.86.06,2.3-.62,2.26-2.35-.11-4.48-.06-9,0-13.46,0-5.28,2-7.29,7.21-7.3q60,0,120,0c5.19,0,7.14,2,7.19,7.32,0,4.49.08,9,0,13.46-.05,1.78.49,2.37,2.3,2.32,4.35-.12,8.72-.17,13.08,0,2.28.09,2.62-.84,2.6-2.82-.08-10.35-.12-20.69,0-31,0-2.35-.64-2.95-2.92-2.9-6.48.15-13,0-19.44.09C250.67,11.37,248.36,9.79,247.66,6ZM89.24,299.12c4.76,1.14,5.66,2.29,5.66,7.63,0,20.44.09,40.89-.08,61.33,0,3.21.89,3.83,3.91,3.79,12.71-.18,25.43-.21,38.14,0,3.47.06,4.56-.61,4.54-4.36-.18-30.79-.11-61.58-.1-92.37,0-6.84,1.4-8.22,8.36-8.22h83.75c7.41,0,8.67,1.25,8.67,8.66,0,30.92,0,61.83-.06,92.75,0,2.73.56,3.57,3.45,3.53,13.08-.18,26.17-.21,39.25,0,3.21.05,3.8-.88,3.8-3.91q-.13-127.71,0-255.42c0-3.52-1-4.17-4.3-4.16q-92.53.14-185.08,0c-3.76,0-4.34,1.09-4.33,4.53q.18,75,.08,150c0,5.69-.74,6.7-5.67,8.06-4-.61-5.71-2.95-5.59-7,.14-5,0-10,.06-14.94,0-1.9-.21-2.9-2.56-2.89-15.31.11-30.62.08-45.93,0-1.8,0-2.67.29-2.66,2.4q.11,35.29,0,70.6c0,2,.69,2.53,2.6,2.52q23-.09,45.93,0c2.32,0,2.65-1,2.61-2.9-.09-4.23-.07-8.46,0-12.7C83.75,301.31,84.63,300.26,89.24,299.12ZM299.72,283.9c0,11.47.07,22.93-.06,34.4,0,2.59.68,3.37,3.32,3.34q22.25-.19,44.48,0c2.57,0,3.38-.61,3.37-3.28q-.16-34.59,0-69.16c0-2.5-.74-3.09-3.15-3.08q-22.43.16-44.85,0c-2.84,0-3.18,1-3.15,3.45C299.78,261,299.72,272.44,299.72,283.9ZM197,325.06c0,14.32.1,28.65-.08,43,0,3.2,1,3.9,4,3.83,8.83-.21,17.68-.19,26.52-.05,2.59,0,3.36-.69,3.35-3.32q-.12-43.53,0-87.05c0-2.76-1-3.28-3.47-3.25-9,.11-17.93.14-26.89-.07-2.89-.06-3.51.89-3.48,3.61C197.06,296.17,197,310.62,197,325.06Zm-44.38-.41c0,14.44.09,28.9-.08,43.34,0,3.17.92,3.95,4,3.87,8.71-.2,17.43-.15,26.15,0,2.43,0,3.14-.66,3.14-3.12q-.12-43.73,0-87.44c0-2.46-.73-3.18-3.16-3.14-8.84.13-17.69.16-26.53,0-2.78-.05-3.59.73-3.56,3.54C152.69,296,152.62,310.32,152.62,324.65ZM191.71,82.43v0H90.78c-.87,0-1.74,0-2.61,0-2.09-.12-2.35.74-1.47,2.45,1.48,2.88,3,5.74,4.24,8.74,1.13,2.8,2.82,3.71,5.9,3.7,60.56-.11,121.11-.36,181.66.16,9.37.08,14.8-2.11,17.54-11.11,1.23-4,1.77-3.9-2.66-3.9Zm-.45-23.25v0H89.61c-7.65,0-7.44,0-7.73,7.62-.14,3.68,1,4.48,4.55,4.47q103.32-.18,206.65-.12c8.08,0,7.89,0,8.13-7.93.1-3.39-1-4.08-4.2-4.07C261.76,59.23,226.51,59.18,191.26,59.18Zm-133,273.63c-7.46,0-14.93.1-22.39-.06-2.57-.05-3.39.62-3.35,3.28q.23,16.23,0,32.48c0,2.54.56,3.38,3.25,3.35q22.4-.19,44.79,0c2.39,0,3.19-.54,3.16-3.05-.14-10.95-.16-21.91,0-32.86.05-2.79-1-3.23-3.44-3.18C73,332.9,65.62,332.81,58.28,332.81Zm266.92,0v0c-7.6,0-15.2.07-22.8-.05-2.15,0-2.74.66-2.72,2.76q.13,16.82,0,33.64c0,2.18.71,2.69,2.78,2.68q22.79-.13,45.59,0c2.09,0,2.78-.53,2.76-2.69q-.15-16.81,0-33.64c0-2.22-.76-2.7-2.8-2.68C340.4,332.9,332.8,332.84,325.2,332.84ZM58.3,207.1c-7.59,0-15.19.07-22.77,0-2.25,0-3,.53-3,2.9.15,7.34.13,14.68,0,22,0,2.21.45,3,2.85,3q22.77-.17,45.54,0c2.51,0,2.8-1,2.78-3.06-.11-7.21-.17-14.44,0-21.65.08-2.77-.95-3.27-3.42-3.22C73,207.19,65.64,207.1,58.3,207.1Zm266.53,27.8v0c7.73,0,15.45-.07,23.18,0,2,0,2.83-.44,2.79-2.66-.13-7.47-.12-15,0-22.43,0-2.14-.64-2.75-2.75-2.74q-22.82.1-45.61,0c-2.11,0-2.8.59-2.77,2.74q.18,11.21,0,22.43c0,2.11.57,2.77,2.72,2.73C309.87,234.83,317.35,234.9,324.83,234.9ZM53.7,180.42c-9.21,0-18.42,0-27.62,0-2.36,0-3.32.39-2,2.89,1.88,3.5,3.61,7.09,5.29,10.69a3,3,0,0,0,3.21,1.9q24.26-.06,48.52,0c1.92,0,2.7-.67,2.65-2.6-.08-3.24-.14-6.48,0-9.71.12-2.44-.76-3.22-3.21-3.19C71.62,180.49,62.66,180.42,53.7,180.42Zm306.41,0c-19.8,0-39,0-58.11,0-1.66,0-2.15.8-2.13,2.31,0,3.49.11,7,0,10.47-.09,2.24.95,2.69,2.92,2.68,15.83-.06,31.66-.05,47.49-.06,1.14,0,2.24,0,2.85-1.25C355.34,190,357.6,185.49,360.11,180.43ZM222,47.38H240c7.78,0,7.6,0,7.8-7.79.09-3.16-1.08-3.62-3.83-3.59-12.83.13-25.66.06-38.49.06-8.68,0-8.57,0-8.5,8.54,0,2.44.88,2.86,3,2.83C207.31,47.32,214.66,47.38,222,47.38Zm-61.07,0h16.81c8.14,0,8,0,8.09-8.14,0-2.7-.83-3.27-3.37-3.24-12.82.13-25.64.06-38.46.06-8.65,0-8.56,0-8.34,8.71.05,2.25.89,2.67,2.87,2.65C146,47.33,153.47,47.38,160.94,47.38Z"/><path class="cls-2" d="M247.66,6c.7,3.82,3,5.4,6.86,5.32,6.48-.13,13,.06,19.44-.09,2.28,0,3,.55,2.92,2.9-.14,10.34-.1,20.68,0,31,0,2-.32,2.91-2.6,2.82-4.36-.18-8.73-.13-13.08,0-1.81.05-2.35-.54-2.3-2.32.11-4.49.06-9,0-13.46-.05-5.29-2-7.32-7.19-7.32q-60,0-120,0c-5.23,0-7.17,2-7.21,7.3,0,4.49-.08,9,0,13.46,0,1.73-.4,2.41-2.26,2.35-4.36-.12-8.73-.15-13.08,0-2.16.08-2.71-.63-2.69-2.74.1-10.21.18-20.44,0-30.65-.06-3,.93-3.4,3.58-3.39,25.54.1,51.09.06,76.63.06,10,0,19.94-.08,29.91,0,3.85,0,6.16-1.48,6.82-5.32Z"/><path class="cls-2" d="M89.24,270.88c4.93-1.36,5.66-2.37,5.67-8.06q0-75-.08-150c0-3.44.57-4.54,4.33-4.53q92.54.23,185.08,0c3.27,0,4.31.64,4.3,4.16q-.17,127.71,0,255.42c0,3-.59,4-3.8,3.91-13.08-.21-26.17-.18-39.25,0-2.89,0-3.46-.8-3.45-3.53.1-30.92.06-61.83.06-92.75,0-7.41-1.26-8.66-8.67-8.66H149.67c-7,0-8.36,1.38-8.36,8.22,0,30.79-.08,61.58.1,92.37,0,3.75-1.07,4.42-4.54,4.36-12.71-.22-25.43-.19-38.14,0-3,0-3.93-.58-3.91-3.79.17-20.44.1-40.89.08-61.33,0-5.34-.9-6.49-5.66-7.63Zm102.48-33.73h69.53c5.61,0,7.49-1.81,7.5-7.26q0-38.32,0-76.64c0-5.21-2-7.11-7.28-7.18-3.37,0-6.74-.19-10.09.05-2.93.22-4.33-.4-4-3.74.38-3.84-1.81-6.07-5.52-6.74-17-3.09-33-.68-47.2,9.69-2.34,1.71-3.55,1.7-5.87,0-14.06-10.56-29.78-13.75-46.93-9.79-2.63.6-4.86,1.64-5.73,4.65-.56,1.94,1.09,4.77-1.19,5.71-1.92.8-4.42.2-6.66.21h-5.61c-6.29,0-8,1.72-8,8v75.14c0,6.32,1.65,8,7.91,8Z"/><path class="cls-3" d="M89.24,270.88v28.24c-4.61,1.14-5.49,2.19-5.55,6.91,0,4.24-.07,8.47,0,12.7,0,1.92-.29,2.92-2.61,2.9q-23-.13-45.93,0c-1.91,0-2.61-.53-2.6-2.52q.07-35.3,0-70.6c0-2.11.86-2.41,2.66-2.4,15.31.05,30.62.08,45.93,0,2.35,0,2.6,1,2.56,2.89-.09,5,.08,10-.06,14.94C83.53,267.93,85.23,270.27,89.24,270.88Z"/><path class="cls-3" d="M299.72,283.9c0-11.46.06-22.92-.05-34.39,0-2.42.31-3.48,3.15-3.45q22.43.23,44.85,0c2.41,0,3.16.58,3.15,3.08q-.13,34.58,0,69.16c0,2.67-.8,3.3-3.37,3.28q-22.23-.15-44.48,0c-2.64,0-3.35-.75-3.32-3.34C299.79,306.83,299.72,295.37,299.72,283.9Z"/><path class="cls-4" d="M197,325.06c0-14.44.06-28.89-.06-43.33,0-2.72.59-3.67,3.48-3.61,9,.21,17.93.18,26.89.07,2.47,0,3.48.49,3.47,3.25q-.15,43.51,0,87.05c0,2.63-.76,3.36-3.35,3.32-8.84-.14-17.69-.16-26.52.05-3,.07-4-.63-4-3.83C197.1,353.71,197,339.38,197,325.06Z"/><path class="cls-4" d="M152.62,324.65c0-14.33.07-28.65-.06-43,0-2.81.78-3.59,3.56-3.54,8.84.17,17.69.14,26.53,0,2.43,0,3.16.68,3.16,3.14q-.12,43.73,0,87.44c0,2.46-.71,3.16-3.14,3.12-8.72-.13-17.44-.18-26.15,0-3.06.08-4-.7-4-3.87C152.71,353.55,152.62,339.09,152.62,324.65Z"/><path class="cls-4" d="M191.71,82.43H293.38c4.43,0,3.89-.15,2.66,3.9-2.74,9-8.17,11.19-17.54,11.11-60.55-.52-121.1-.27-181.66-.16-3.08,0-4.77-.9-5.9-3.7-1.21-3-2.76-5.86-4.24-8.74-.88-1.71-.62-2.57,1.47-2.45.87,0,1.74,0,2.61,0H191.71Z"/><path class="cls-4" d="M191.26,59.18c35.25,0,70.5,0,105.75-.07,3.21,0,4.3.68,4.2,4.07-.24,7.92,0,7.93-8.13,7.93q-103.32,0-206.65.12c-3.56,0-4.69-.79-4.55-4.47.29-7.61.08-7.62,7.73-7.62H191.26Z"/><path class="cls-5" d="M58.28,332.81c7.34,0,14.69.09,22-.05,2.45-.05,3.49.39,3.44,3.18-.16,10.95-.14,21.91,0,32.86,0,2.51-.77,3.07-3.16,3.05q-22.39-.15-44.79,0c-2.69,0-3.28-.81-3.25-3.35q.21-16.25,0-32.48c0-2.66.78-3.33,3.35-3.28C43.35,332.91,50.82,332.81,58.28,332.81Z"/><path class="cls-5" d="M325.2,332.84c7.6,0,15.2.06,22.8,0,2,0,2.83.46,2.8,2.68q-.15,16.81,0,33.64c0,2.16-.67,2.7-2.76,2.69q-22.8-.1-45.59,0c-2.07,0-2.8-.5-2.78-2.68q.15-16.82,0-33.64c0-2.1.57-2.79,2.72-2.76,7.6.12,15.2.05,22.8.05Z"/><path class="cls-5" d="M58.3,207.1c7.34,0,14.68.09,22-.06,2.47,0,3.5.45,3.42,3.22-.19,7.21-.13,14.44,0,21.65,0,2.09-.27,3.08-2.78,3.06q-22.77-.19-45.54,0c-2.4,0-2.89-.78-2.85-3,.13-7.34.15-14.68,0-22,0-2.37.73-2.94,3-2.9C43.11,207.17,50.71,207.1,58.3,207.1Z"/><path class="cls-5" d="M324.83,234.9c-7.48,0-15-.07-22.43,0-2.15,0-2.76-.62-2.72-2.73q.17-11.22,0-22.43c0-2.15.66-2.75,2.77-2.74q22.8.13,45.61,0c2.11,0,2.78.6,2.75,2.74-.12,7.47-.13,15,0,22.43,0,2.22-.75,2.69-2.79,2.66-7.73-.11-15.45,0-23.18,0Z"/><path class="cls-4" d="M53.7,180.42c9,0,17.92.07,26.88,0,2.45,0,3.33.75,3.21,3.19-.16,3.23-.1,6.47,0,9.71,0,1.93-.73,2.61-2.65,2.6q-24.26-.08-48.52,0a3,3,0,0,1-3.21-1.9c-1.68-3.6-3.41-7.19-5.29-10.69-1.34-2.5-.38-2.91,2-2.89C35.28,180.46,44.49,180.42,53.7,180.42Z"/><path class="cls-4" d="M360.11,180.43c-2.51,5.06-4.77,9.59-7,14.13-.61,1.26-1.71,1.25-2.85,1.25-15.83,0-31.66,0-47.49.06-2,0-3-.44-2.92-2.68.13-3.49.06-7,0-10.47,0-1.51.47-2.31,2.13-2.31C321.15,180.44,340.31,180.43,360.11,180.43Z"/><path class="cls-3" d="M222,47.38c-7.35,0-14.7-.06-22,0-2.16,0-3-.39-3-2.83-.07-8.54-.18-8.54,8.5-8.54,12.83,0,25.66.07,38.49-.06,2.75,0,3.92.43,3.83,3.59-.2,7.79,0,7.79-7.8,7.79Z"/><path class="cls-3" d="M160.94,47.38c-7.47,0-14.94-.05-22.4,0-2,0-2.82-.4-2.87-2.65-.22-8.72-.31-8.71,8.34-8.71,12.82,0,25.64.07,38.46-.06,2.54,0,3.4.54,3.37,3.24-.08,8.14,0,8.14-8.09,8.14Z"/><path class="cls-1" d="M191.72,237.15H122.57c-6.26,0-7.91-1.66-7.91-8V154c0-6.24,1.72-7.93,8-8h5.61c2.24,0,4.74.59,6.66-.21,2.28-.94.63-3.77,1.19-5.71.87-3,3.1-4.05,5.73-4.65,17.15-4,32.87-.77,46.93,9.79,2.32,1.74,3.53,1.75,5.87,0,14.22-10.37,30.18-12.78,47.2-9.69,3.71.67,5.9,2.9,5.52,6.74-.33,3.34,1.07,4,4,3.74,3.35-.24,6.72-.08,10.09-.05,5.32.07,7.27,2,7.28,7.18q0,38.33,0,76.64c0,5.45-1.89,7.26-7.5,7.26Zm5.6-19.88c11.16-9,23.28-12.74,36.62-12.76,1.86,0,2.3-.7,2.3-2.41q-.08-26.88,0-53.77c0-1.65-.39-2.39-2.24-2.53-12.5-1-23.92,1.74-34,9.45a6.25,6.25,0,0,0-2.73,5.64c.17,9.33.07,18.67.07,28Zm-11.68-1.22a5.78,5.78,0,0,0,.39-1.3q0-27.65,0-55.29a3.15,3.15,0,0,0-.91-2.7c-10.29-9-22.19-12.88-35.83-11.28-1.76.2-2.13,1.09-2.12,2.73q.08,26.72,0,53.42c0,2.2.72,2.71,2.77,2.6a47.66,47.66,0,0,1,9.69.38A52.1,52.1,0,0,1,185.64,216.05Zm-6,9.75c-10.46-9.26-22-11.57-34.46-10.08-7,.85-9.22-.77-9.23-7.77,0-14.57.07-29.15,0-43.72-.06-8.07,1.77-6.87-7.46-7.08-2.22-.05-2.68.83-2.68,2.85q.09,31.58,0,63.16c0,2.39.79,2.88,3,2.87,16.06-.09,32.13-.05,48.2-.05C177.54,226,178.12,225.9,179.66,225.8Zm26,.18c16.16,0,32.32-.07,48.48.07,2.78,0,3.54-.68,3.53-3.5-.13-19.69-.07-39.37-.07-59.06,0-6.34,0-6.17-6.26-6.37-3.16-.1-4,.93-3.94,4,.15,14.7.07,29.41.07,44.11,0,10.58-.87,11.14-11.4,10.55C224.75,215.15,214.42,218.14,205.63,226Z"/><path class="cls-6" d="M197.32,217.27V188.89c0-9.33.1-18.67-.07-28a6.25,6.25,0,0,1,2.73-5.64c10.09-7.71,21.51-10.44,34-9.45,1.85.14,2.25.88,2.24,2.53q-.06,26.88,0,53.77c0,1.71-.44,2.41-2.3,2.41C220.6,204.53,208.48,208.27,197.32,217.27Z"/><path class="cls-6" d="M185.64,216.05a52.1,52.1,0,0,0-26-11.44,47.66,47.66,0,0,0-9.69-.38c-2.05.11-2.78-.4-2.77-2.6q.14-26.72,0-53.42c0-1.64.36-2.53,2.12-2.73,13.64-1.6,25.54,2.27,35.83,11.28a3.15,3.15,0,0,1,.91,2.7q0,27.64,0,55.29A5.78,5.78,0,0,1,185.64,216.05Z"/><path class="cls-4" d="M179.66,225.8c-1.54.1-2.12.18-2.69.18-16.07,0-32.14,0-48.2.05-2.21,0-3-.48-3-2.87q.15-31.57,0-63.16c0-2,.46-2.9,2.68-2.85,9.23.21,7.4-1,7.46,7.08.11,14.57,0,29.15,0,43.72,0,7,2.2,8.62,9.23,7.77C157.69,214.23,169.2,216.54,179.66,225.8Z"/><path class="cls-4" d="M205.63,226c8.79-7.84,19.12-10.83,30.41-10.2,10.53.59,11.4,0,11.4-10.55,0-14.7.08-29.41-.07-44.11,0-3.07.78-4.1,3.94-4,6.25.2,6.26,0,6.26,6.37,0,19.69-.06,39.37.07,59.06,0,2.82-.75,3.52-3.53,3.5C238,225.91,221.79,226,205.63,226Z"/></g></g></svg>