<svg xmlns="http://www.w3.org/2000/svg" xmlns:xlink="http://www.w3.org/1999/xlink" width="392.468" height="347.434" viewBox="0 0 392.468 347.434">
  <defs>
    <clipPath id="clip-path">
      <rect id="Rectangle_3918" data-name="Rectangle 3918" width="392.468" height="347.434" fill="none"/>
    </clipPath>
  </defs>
  <g id="Group_3699" data-name="Group 3699" transform="translate(0 0.001)">
    <path id="Path_13467" data-name="Path 13467" d="M0,0V74.56H23.207V22.912H74.135V0Z" transform="translate(0 0)" fill="#186c5c"/>
    <path id="Path_13468" data-name="Path 13468" d="M0,266.338V340.9H74.081V317.714H22.936V266.338Z" transform="translate(0 6.536)" fill="#186c5c"/>
    <g id="Group_3698" data-name="Group 3698" transform="translate(0 0)">
      <g id="Group_3697" data-name="Group 3697" clip-path="url(#clip-path)">
        <path id="Path_13469" data-name="Path 13469" d="M19.3,172a430.548,430.548,0,0,1,45.438-44.937c22.176-18.61,46.141-34.267,73.487-44.233,49.242-17.948,96.54-12.418,142.184,12.1,28.677,15.4,53.2,36.164,75.759,59.412,5.511,5.679,10.825,11.549,16.6,17.722-7.485,7.861-14.612,15.695-22.11,23.156-23.149,23.039-48.375,43.329-77.884,57.761-26.356,12.891-54.094,19.891-83.555,18.586-31.3-1.387-59.924-11.569-86.654-27.517-29.718-17.732-54.916-40.835-78.1-66.3-1.635-1.8-3.247-3.615-5.158-5.744m176.652,76.119A76.156,76.156,0,1,0,119.9,172.042a76.015,76.015,0,0,0,76.058,76.076m86.393-125.2c16.853,33.1,16.8,65.148.04,98.121,22.221-14.169,40.973-30.717,58.668-49.052-17.707-18.335-36.466-34.905-58.708-49.069m-172.919-.007c-22.289,14.31-41.122,30.821-58.655,49.114,17.8,18.36,36.478,34.895,58.618,48.982-16.781-32.969-16.791-65.041.037-98.1" transform="translate(0.474 1.774)" fill="#186c5c"/>
        <path id="Path_13470" data-name="Path 13470" d="M310.8,23.171V.321h74V74.311H362.3V23.171Z" transform="translate(7.627 0.008)" fill="#186c5c"/>
        <path id="Path_13471" data-name="Path 13471" d="M310.991,317.764h50.985V266.636h22.86v74.042H310.991Z" transform="translate(7.632 6.543)" fill="#186c5c"/>
        <path id="Path_13472" data-name="Path 13472" d="M193.545,247.554a76.155,76.155,0,1,1,75.93-76.2,76.048,76.048,0,0,1-75.93,76.2m.122-38.687c20.42-.174,37.36-17.316,37.178-37.623-.183-20.5-17.268-37.448-37.537-37.236-20.5.214-37.381,17.29-37.175,37.6.207,20.485,17.282,37.436,37.534,37.264" transform="translate(2.883 2.337)" fill="#cbb176"/>
        <path id="Path_13473" data-name="Path 13473" d="M276.047,121.7c22.243,14.164,41,30.734,58.708,49.068-17.694,18.336-36.447,34.882-58.668,49.053,16.758-32.973,16.813-65.022-.04-98.121" transform="translate(6.774 2.987)" fill="#fff"/>
        <path id="Path_13474" data-name="Path 13474" d="M108.676,121.694c-16.828,33.056-16.818,65.128-.037,98.1C86.5,205.7,67.825,189.168,50.021,170.808c17.533-18.293,36.366-34.8,58.655-49.114" transform="translate(1.227 2.986)" fill="#fff"/>
        <path id="Path_13475" data-name="Path 13475" d="M192.741,207.938c-20.252.173-37.326-16.778-37.534-37.264-.206-20.305,16.68-37.381,37.175-37.6,20.269-.212,37.354,16.736,37.537,37.237.182,20.306-16.757,37.449-37.178,37.622M206.577,170.3a14.018,14.018,0,1,0-13.824,14.25,13.771,13.771,0,0,0,13.824-14.25" transform="translate(3.809 3.266)" fill="#186c5c"/>
        <path id="Path_13476" data-name="Path 13476" d="M206.018,169.738a14.018,14.018,0,1,1-14.211-13.85,13.809,13.809,0,0,1,14.211,13.85" transform="translate(4.368 3.825)" fill="#fff"/>
      </g>
    </g>
  </g>
</svg>
