<svg xmlns="http://www.w3.org/2000/svg" width="384" height="383.303" viewBox="0 0 384 383.303">
  <g id="Group_3696" data-name="Group 3696" transform="translate(9269 3119.492)">
    <path id="Path_13461" data-name="Path 13461" d="M72,0h6c2.793,2.232,5.8,4.248,8.341,6.736,9.094,8.9,18.032,17.953,27.1,27.021,1.389-.66,2.61-1.234,3.827-1.818,36.817-17.684,75.337-22.977,115.524-15.575a180.394,180.394,0,0,1,88.852,43.594q47.381,42.25,59.3,104.7c1.272,6.695,2.052,13.484,3.059,20.229v26.2c-.824,6.022-1.436,12.083-2.508,18.061-7.385,41.216-26.049,76.548-57.082,104.731-44.61,40.512-97.271,56.259-156.761,46.721-43.724-7.011-80.53-27.828-109.179-61.585-40.819-48.1-53.776-103.363-39.92-164.842,3.213-14.251,8.614-27.749,15.346-41.027C24.7,104.033,15.52,95.044,6.494,85.9A98.686,98.686,0,0,1,0,77.848V71.859c1.865-4.8,5.608-7.26,10.333-8.937q17.79-6.312,35.385-13.169a8.108,8.108,0,0,0,4.136-4.135Q56.718,28.064,63.047,10.3C64.726,5.589,67.2,1.865,72,0m64.057,92.23c19.279-11.113,39.258-16.7,60.582-17.022a121.057,121.057,0,0,1,60.733,14.9,123.34,123.34,0,0,1,45.452,42.5C332.3,178.689,327,240.257,290.04,280.6c-38.29,41.8-98.1,52.8-148.178,26.691-30.938-16.126-51.67-41.226-61.5-74.708s-5.37-65.625,11.811-96.7c-8.319,1.466-15.808,2.663-23.241,4.138-5.06,1-9.045-.542-12.49-4.149-1.757-1.84-3.651-3.549-5.607-5.438A162.57,162.57,0,1,0,309.074,79.02c-57.15-53.009-134.573-50.8-178.02-27.9a14.234,14.234,0,0,0,1.787,1.912c7.349,5.449,9.123,12.428,6.64,21.127-1.59,5.566-2.2,11.411-3.424,18.068m-15.936,43.577c-31.788,38.69-30.61,100.677,12.3,137.847C175.9,311.307,240.807,305.7,276.44,261.771a100.187,100.187,0,0,0-16.508-143.092C217.4,85.93,162.491,96.06,136.4,120.178c8.759,8.726,17.474,17.487,26.346,26.087.672.651,2.763.657,3.688.11a63.5,63.5,0,0,1,26.383-8.768c39.662-3.953,72.407,30.917,66.01,70.4-4.326,26.7-25.394,46.969-52.787,50.784-25.645,3.571-52.024-11.077-62.894-35.25-8.748-19.453-7.336-38.49,3.272-56.916.769-1.335,2.167-2.41.387-4.167-8.871-8.756-17.647-17.608-26.68-26.649m44.657,44.559a38.292,38.292,0,1,0,64.551-5.077c-11.387-15.076-32.087-19.82-48.457-10.909.982,1.028,1.894,2.023,2.848,2.976q11.116,11.112,22.249,22.208c3.111,3.1,4.733,6.743,3.628,11.155-2.255,9-12.6,11.735-19.407,5.053-8.45-8.291-16.751-16.733-25.412-25.406M79.417,31.583c-2.641,7.01-4.89,13.308-7.4,19.5-1.029,2.533-.739,4.174,1.293,6.168,12.214,11.979,24.264,24.123,36.379,36.2.761.758,1.611,1.425,2.634,2.323,1.544-8.332,3.067-16.266,4.422-24.229a4.317,4.317,0,0,0-.85-3.3C103.977,56.153,91.967,44.16,79.417,31.583m16.9,80.436C82.578,98.342,69.36,85.162,56.084,72.04a3.143,3.143,0,0,0-2.568-.847c-7.1,2.508-14.139,5.178-21.175,7.795.19.621.191.915.338,1.063Q50.5,97.907,68.4,115.686a4.334,4.334,0,0,0,3.314.857c7.968-1.366,15.906-2.9,24.6-4.524" transform="translate(-9269 -3119.492)" fill="#186c5c"/>
    <path id="Path_13462" data-name="Path 13462" d="M136.056,92.23c1.222-6.657,1.834-12.5,3.424-18.068,2.484-8.7.71-15.677-6.639-21.127a14.24,14.24,0,0,1-1.788-1.912c43.447-22.9,120.87-25.112,178.02,27.9A162.488,162.488,0,1,1,50.835,130.431c1.957,1.889,3.85,3.6,5.607,5.438,3.446,3.607,7.431,5.153,12.49,4.149,7.434-1.475,14.923-2.672,23.242-4.138-17.182,31.078-21.644,63.208-11.812,96.7s30.561,58.582,61.5,74.709C191.944,333.4,251.749,322.4,290.04,280.6,327,240.257,332.3,178.689,302.824,132.616a123.348,123.348,0,0,0-45.452-42.5,121.061,121.061,0,0,0-60.734-14.9c-21.323.324-41.3,5.909-60.582,17.022" transform="translate(-9269 -3119.492)" fill="#fff"/>
    <path id="Path_13463" data-name="Path 13463" d="M120.121,135.807c9.033,9.041,17.809,17.892,26.68,26.648,1.78,1.757.382,2.832-.386,4.167-10.609,18.426-12.021,37.463-3.273,56.917,10.87,24.173,37.25,38.82,62.894,35.249,27.394-3.814,48.461-24.082,52.788-50.783,6.4-39.481-26.349-74.352-66.011-70.4a63.492,63.492,0,0,0-26.383,8.768c-.924.547-3.015.541-3.688-.111-8.872-8.6-17.587-17.361-26.346-26.086,26.1-24.119,81-34.249,123.537-1.5a100.19,100.19,0,0,1,16.508,143.093C240.807,305.7,175.9,311.307,132.427,273.654c-42.916-37.17-44.094-99.157-12.306-137.847" transform="translate(-9269 -3119.492)" fill="#fff"/>
    <path id="Path_13464" data-name="Path 13464" d="M164.778,180.366c8.661,8.673,16.962,17.115,25.412,25.406,6.809,6.682,17.153,3.948,19.407-5.054,1.1-4.412-.516-8.05-3.628-11.154q-11.128-11.1-22.249-22.208c-.954-.953-1.866-1.948-2.848-2.976,16.371-8.911,37.07-4.168,48.457,10.908a38.318,38.318,0,1,1-64.551,5.078" transform="translate(-9269 -3119.492)" fill="#cbb176"/>
    <path id="Path_13465" data-name="Path 13465" d="M79.417,31.582c12.55,12.578,24.56,24.571,36.473,36.659a4.319,4.319,0,0,1,.85,3.305c-1.355,7.962-2.878,15.9-4.422,24.229-1.023-.9-1.873-1.566-2.633-2.323-12.116-12.079-24.166-24.224-36.38-36.2-2.032-1.994-2.322-3.635-1.293-6.168,2.515-6.19,4.764-12.489,7.4-19.5" transform="translate(-9269 -3119.492)" fill="#fff"/>
    <path id="Path_13466" data-name="Path 13466" d="M96.316,112.019c-8.695,1.622-16.633,3.158-24.6,4.524a4.334,4.334,0,0,1-3.314-.857Q50.449,97.961,32.679,80.051c-.147-.148-.148-.442-.338-1.063,7.036-2.617,14.077-5.287,21.175-7.795a3.143,3.143,0,0,1,2.568.847c13.276,13.122,26.494,26.3,40.232,39.979" transform="translate(-9269 -3119.492)" fill="#fff"/>
  </g>
</svg>
