<svg id="instagram" xmlns="http://www.w3.org/2000/svg" xmlns:xlink="http://www.w3.org/1999/xlink" width="49.228" height="49.228" viewBox="0 0 49.228 49.228">
  <defs>
    <radialGradient id="radial-gradient" cx="0.205" cy="0.874" r="1.103" gradientUnits="objectBoundingBox">
      <stop offset="0" stop-color="#fae100"/>
      <stop offset="0.054" stop-color="#fadc04"/>
      <stop offset="0.117" stop-color="#fbce0e"/>
      <stop offset="0.183" stop-color="#fcb720"/>
      <stop offset="0.251" stop-color="#fe9838"/>
      <stop offset="0.305" stop-color="#ff7950"/>
      <stop offset="0.492" stop-color="#ff1c74"/>
      <stop offset="1" stop-color="#6c1cd1"/>
    </radialGradient>
    <linearGradient id="linear-gradient" x1="0.369" y1="0.426" x2="-1.54" y2="-0.648" gradientUnits="objectBoundingBox">
      <stop offset="0" stop-color="#a1b5d8" stop-opacity="0"/>
      <stop offset="0.309" stop-color="#90a2bd" stop-opacity="0.31"/>
      <stop offset="0.755" stop-color="#7c8b9c" stop-opacity="0.757"/>
      <stop offset="1" stop-color="#748290"/>
    </linearGradient>
    <linearGradient id="linear-gradient-2" x1="0.5" y1="0.413" x2="0.5" y2="1.193" gradientUnits="objectBoundingBox">
      <stop offset="0" stop-color="#fae100" stop-opacity="0"/>
      <stop offset="0.307" stop-color="#fca800" stop-opacity="0.306"/>
      <stop offset="0.627" stop-color="#fe7300" stop-opacity="0.627"/>
      <stop offset="0.868" stop-color="#ff5200" stop-opacity="0.867"/>
      <stop offset="1" stop-color="#ff4500"/>
    </linearGradient>
    <linearGradient id="linear-gradient-3" x1="0.316" y1="0.311" x2="0.012" y2="0.005" gradientUnits="objectBoundingBox">
      <stop offset="0" stop-color="#833ab4" stop-opacity="0"/>
      <stop offset="1" stop-color="#833ab4"/>
    </linearGradient>
    <linearGradient id="linear-gradient-4" x1="0.582" y1="0.887" x2="0.418" y2="0.113" xlink:href="#linear-gradient-3"/>
    <linearGradient id="linear-gradient-5" x1="0.605" y1="0.605" x2="-0.16" y2="-0.16" xlink:href="#linear-gradient-3"/>
    <linearGradient id="linear-gradient-6" x1="0.376" y1="0.332" x2="-0.072" y2="-0.063" xlink:href="#linear-gradient-3"/>
    <linearGradient id="linear-gradient-7" x1="0.816" y1="0.182" x2="0.172" y2="0.835" gradientUnits="objectBoundingBox">
      <stop offset="0" stop-color="#833ab4"/>
      <stop offset="0.092" stop-color="#9c3495"/>
      <stop offset="0.293" stop-color="#dc2546"/>
      <stop offset="0.392" stop-color="#fd1d1d"/>
      <stop offset="0.559" stop-color="#fc6831"/>
      <stop offset="0.689" stop-color="#fc9b40"/>
      <stop offset="0.752" stop-color="#fcaf45"/>
      <stop offset="0.781" stop-color="#fdb750"/>
      <stop offset="0.866" stop-color="#fecb6a"/>
      <stop offset="0.942" stop-color="#ffd87a"/>
      <stop offset="1" stop-color="#ffdc80"/>
    </linearGradient>
  </defs>
  <path id="Path_12816" data-name="Path 12816" d="M48.385,8.805A8.963,8.963,0,0,0,40.423.843a148.685,148.685,0,0,0-31.617,0A8.964,8.964,0,0,0,.843,8.805a148.685,148.685,0,0,0,0,31.617,8.964,8.964,0,0,0,7.962,7.963,148.689,148.689,0,0,0,31.618,0,8.963,8.963,0,0,0,7.962-7.963A148.685,148.685,0,0,0,48.385,8.805Zm0,0" fill="url(#radial-gradient)"/>
  <path id="Path_12817" data-name="Path 12817" d="M71.769,36.647A7.954,7.954,0,0,0,64.7,29.582a131.99,131.99,0,0,0-28.056,0,7.955,7.955,0,0,0-7.066,7.066,131.987,131.987,0,0,0,0,28.056,7.954,7.954,0,0,0,7.066,7.066,131.936,131.936,0,0,0,28.056,0A7.953,7.953,0,0,0,71.769,64.7,131.936,131.936,0,0,0,71.769,36.647Zm0,0" transform="translate(-26.062 -26.062)" fill="url(#linear-gradient)"/>
  <path id="Path_12818" data-name="Path 12818" d="M7.672,409.8q.051.51.105,1.021a8.964,8.964,0,0,0,7.963,7.962,148.686,148.686,0,0,0,31.617,0,8.963,8.963,0,0,0,7.962-7.962q.055-.51.106-1.021Zm0,0" transform="translate(-6.934 -370.403)" fill="url(#linear-gradient-2)"/>
  <path id="Path_12819" data-name="Path 12819" d="M134.332,128.382a148.817,148.817,0,0,0,.838-16.989l-11.252-11.252a8.059,8.059,0,0,0-5.872-2.693c-4.962-.179-9.939-.17-14.9,0-4.122.142-7,2.912-7.743,6.984-.13.719-.208,1.447-.311,2.171V118.54c.057.387.14.772.166,1.161a8.678,8.678,0,0,0,2.813,6.033l11.451,11.45a148.82,148.82,0,0,0,16.851-.839A8.963,8.963,0,0,0,134.332,128.382Zm0,0" transform="translate(-85.947 -87.96)" fill="url(#linear-gradient-3)"/>
  <path id="Path_12820" data-name="Path 12820" d="M162.5,155a8.964,8.964,0,0,1-7.962,7.962,148.9,148.9,0,0,1-16.85.839l-11.433-11.433a8.017,8.017,0,0,0,5.058,1.942c4.961.186,9.94.181,14.9,0a7.974,7.974,0,0,0,7.875-7.971c.149-4.765.149-9.542,0-14.306a8.306,8.306,0,0,0-2-5.27l11.245,11.245A149.084,149.084,0,0,1,162.5,155Zm0,0" transform="translate(-114.115 -114.577)" fill="url(#linear-gradient-4)"/>
  <path id="Path_12821" data-name="Path 12821" d="M187.686,176.546a7.884,7.884,0,1,0-11.139,11.139l18.243,18.243q1.448-.126,2.9-.281a8.964,8.964,0,0,0,7.963-7.963q.154-1.447.281-2.9Zm0,0" transform="translate(-157.263 -157.263)" fill="url(#linear-gradient-5)"/>
  <path id="Path_12822" data-name="Path 12822" d="M341.334,166.165l-14.682-14.682a1.874,1.874,0,1,0-2.626,2.626l17.045,17.046Q341.245,168.661,341.334,166.165Zm0,0" transform="translate(-292.202 -136.249)" fill="url(#linear-gradient-6)"/>
  <path id="Path_12823" data-name="Path 12823" d="M95.09,106.6c.1-.724.181-1.452.311-2.171.739-4.072,3.621-6.842,7.743-6.984,4.962-.171,9.94-.18,14.9,0a7.974,7.974,0,0,1,7.875,7.97q.224,7.147,0,14.306a7.974,7.974,0,0,1-7.874,7.97c-4.962.179-9.94.184-14.9,0-4.487-.169-7.588-3.5-7.888-7.992-.026-.389-.109-.774-.166-1.161Zm15.475,18.432c2.271,0,4.544.068,6.811-.016,3.556-.132,5.743-2.254,5.826-5.806q.154-6.639,0-13.285c-.083-3.551-2.271-5.723-5.826-5.8q-6.767-.143-13.538,0c-3.527.074-5.72,2.2-5.816,5.714q-.183,6.723,0,13.454c.1,3.512,2.289,5.59,5.817,5.721C106.078,125.1,108.323,125.036,110.565,125.036Zm0,0" transform="translate(-85.947 -87.96)" fill="url(#linear-gradient-7)"/>
  <g id="Group_3071" data-name="Group 3071" transform="translate(9.143 9.357)">
    <path id="Path_12824" data-name="Path 12824" d="M95.09,106.6c.1-.724.181-1.452.311-2.171.739-4.072,3.621-6.842,7.743-6.984,4.962-.171,9.94-.18,14.9,0a7.974,7.974,0,0,1,7.875,7.97q.224,7.147,0,14.306a7.974,7.974,0,0,1-7.874,7.97c-4.962.179-9.94.184-14.9,0-4.487-.169-7.588-3.5-7.888-7.992-.026-.389-.109-.774-.166-1.161Zm15.475,18.432c2.271,0,4.544.068,6.811-.016,3.556-.132,5.743-2.254,5.826-5.806q.154-6.639,0-13.285c-.083-3.551-2.271-5.723-5.826-5.8q-6.767-.143-13.538,0c-3.527.074-5.72,2.2-5.816,5.714q-.183,6.723,0,13.454c.1,3.512,2.289,5.59,5.817,5.721C106.078,125.1,108.323,125.036,110.565,125.036Zm0,0" transform="translate(-95.09 -97.317)" fill="#fff"/>
    <path id="Path_12825" data-name="Path 12825" d="M181.877,174a7.885,7.885,0,1,0,7.885,7.884A7.885,7.885,0,0,0,181.877,174Zm0,13.055a5.17,5.17,0,1,1,5.17-5.17A5.17,5.17,0,0,1,181.877,187.051Zm0,0" transform="translate(-166.406 -166.624)" fill="#fff"/>
    <path id="Path_12826" data-name="Path 12826" d="M327.037,152.618a1.876,1.876,0,1,1-1.876-1.876A1.876,1.876,0,0,1,327.037,152.618Zm0,0" transform="translate(-301.345 -145.605)" fill="#fff"/>
  </g>
</svg>
