<svg id="brightness" xmlns="http://www.w3.org/2000/svg" width="36.6" height="36.6" viewBox="0 0 36.6 36.6">
  <g id="Group_2582" data-name="Group 2582">
    <g id="Group_2581" data-name="Group 2581">
      <circle id="Ellipse_376" data-name="Ellipse 376" cx="9.675" cy="9.675" r="9.675" transform="translate(7.521 10.195) rotate(-8)" fill="none" stroke="#fff" stroke-width="2"/>
      <path id="Path_12054" data-name="Path 12054" d="M235.429,6.1h1.525a.762.762,0,0,0,.763-.763V.762A.762.762,0,0,0,236.954,0H235.43a.762.762,0,0,0-.763.763V5.337A.762.762,0,0,0,235.429,6.1Z" transform="translate(-217.892)" fill="#fff"/>
      <path id="Path_12055" data-name="Path 12055" d="M236.954,426.667H235.43a.762.762,0,0,0-.763.763V432a.762.762,0,0,0,.763.763h1.525a.762.762,0,0,0,.763-.763V427.43A.762.762,0,0,0,236.954,426.667Z" transform="translate(-217.892 -396.167)" fill="#fff"/>
      <path id="Path_12056" data-name="Path 12056" d="M432,234.667h-4.575a.762.762,0,0,0-.763.763v1.525a.762.762,0,0,0,.763.763H432a.762.762,0,0,0,.763-.763V235.43A.762.762,0,0,0,432,234.667Z" transform="translate(-396.166 -217.892)" fill="#fff"/>
      <path id="Path_12057" data-name="Path 12057" d="M6.1,236.954V235.43a.762.762,0,0,0-.763-.763H.762a.762.762,0,0,0-.762.762v1.525a.762.762,0,0,0,.763.763H5.337A.762.762,0,0,0,6.1,236.954Z" transform="translate(0 -217.892)" fill="#fff"/>
      <path id="Path_12058" data-name="Path 12058" d="M367.313,69.929a.762.762,0,0,0,1.078,0l3.235-3.235a.762.762,0,0,0,0-1.078l-1.078-1.078a.762.762,0,0,0-1.078,0l-3.235,3.235a.762.762,0,0,0,0,1.078Z" transform="translate(-339.848 -59.716)" fill="#fff"/>
      <path id="Path_12059" data-name="Path 12059" d="M68.85,366.233a.762.762,0,0,0-1.078,0l-3.235,3.235a.762.762,0,0,0,0,1.078l1.078,1.078a.762.762,0,0,0,1.078,0l3.235-3.235a.762.762,0,0,0,0-1.078Z" transform="translate(-59.715 -339.846)" fill="#fff"/>
      <path id="Path_12060" data-name="Path 12060" d="M368.391,366.233a.762.762,0,0,0-1.078,0l-1.078,1.078a.762.762,0,0,0,0,1.078l3.235,3.235a.762.762,0,0,0,1.078,0l1.078-1.078a.762.762,0,0,0,0-1.078Z" transform="translate(-339.847 -339.846)" fill="#fff"/>
      <path id="Path_12061" data-name="Path 12061" d="M67.771,69.929a.762.762,0,0,0,1.078,0l1.078-1.078a.762.762,0,0,0,0-1.078l-3.235-3.235a.762.762,0,0,0-1.078,0l-1.078,1.078a.762.762,0,0,0,0,1.078Z" transform="translate(-59.715 -59.716)" fill="#fff"/>
    </g>
  </g>
</svg>
