<svg xmlns="http://www.w3.org/2000/svg" width="205.204" height="205" viewBox="0 0 205.204 205">
  <g id="open-book" transform="translate(0 -0.251)">
    <g id="Group_3363" data-name="Group 3363" transform="translate(1.736 2.13)">
      <path id="Path_13162" data-name="Path 13162" d="M124.2,108.034V38.592a77.366,77.366,0,0,0-31.249-6.944A224.076,224.076,0,0,0,37.4,38.592V191.366a224.076,224.076,0,0,1,55.554-6.944,77.366,77.366,0,0,1,31.249,6.944s17.361-6.944,34.721-6.944c31.249,0,52.082,6.944,52.082,6.944V38.592s-6.944-3.472-20.833-3.472V3.87C162.4,14.286,124.2,38.592,124.2,38.592Z" transform="translate(-23.512 -3.87)" fill="#fff5dc"/>
      <path id="Path_13163" data-name="Path 13163" d="M204.651,131.87V267.284a13.929,13.929,0,0,1-13.888,13.888h-86.8V267.284s17.361-6.944,34.721-6.944c31.249,0,52.082,6.944,52.082,6.944V131.87h13.889ZM103.959,267.284v13.888h-86.8A13.929,13.929,0,0,1,3.267,267.284V131.87H17.155V267.284a224.077,224.077,0,0,1,55.554-6.944A77.374,77.374,0,0,1,103.959,267.284Z" transform="translate(-3.267 -79.788)" fill="#21927e"/>
    </g>
    <path id="Path_13164" data-name="Path 13164" d="M189.232,205.251H15.625A15.56,15.56,0,0,1,0,189.626V54.212a1.64,1.64,0,0,1,1.736-1.736,1.64,1.64,0,0,1,1.736,1.736V189.626a12.3,12.3,0,0,0,12.153,12.153h85.068V190.668c-3.472-1.389-15.278-6.25-29.513-6.25a230.046,230.046,0,0,0-55.207,6.944,2.088,2.088,0,0,1-1.389-.347,1.8,1.8,0,0,1-.695-1.389V36.852a1.772,1.772,0,0,1,1.389-1.736,236.021,236.021,0,0,1,55.9-6.944c17.708,0,31.6,6.944,31.944,7.292a1.86,1.86,0,0,1,1.042,1.389V172.612c8.68-4.861,36.8-20.833,62.5-29.513V4.561C140.276,14.977,113.887,30.949,113.887,31.3a1.787,1.787,0,1,1-1.736-3.125c.347-.347,28.124-17.708,55.9-27.777.695-.347,1.042,0,1.736.347a1.8,1.8,0,0,1,.695,1.389V144.488a1.91,1.91,0,0,1-1.042,1.736c-30.555,10.069-65.276,30.9-65.624,31.249a1.578,1.578,0,0,1-1.736,0,1.86,1.86,0,0,1-1.042-1.389V38.241c-3.472-1.389-15.278-6.25-29.513-6.25a224.955,224.955,0,0,0-53.818,6.6v149.3a226.752,226.752,0,0,1,53.818-6.6c15.625,0,28.124,5.208,31.249,6.944,3.472-1.389,19.1-6.944,34.721-6.944,25.694,0,44.1,4.514,50.346,6.25V38.588a48.2,48.2,0,0,0-5.9-1.042c-1.042-.347-1.736-1.042-1.389-2.083a1.53,1.53,0,0,1,2.083-1.389c4.514.695,7.292,1.389,7.292,1.389a2.306,2.306,0,0,1,1.389,1.736V189.974a1.8,1.8,0,0,1-.695,1.389,2.6,2.6,0,0,1-1.736.347c-.347,0-20.833-6.944-51.388-6.944-14.236,0-28.819,4.861-32.986,6.25v11.111h85.067a12.3,12.3,0,0,0,12.153-12.153V54.56a1.736,1.736,0,1,1,3.472,0V189.973A16.029,16.029,0,0,1,189.232,205.251ZM36.458,153.169a1.772,1.772,0,0,1-1.736-1.389c-.347-1.042.347-1.736,1.389-2.083s25-6.6,45.832-1.736a1.77,1.77,0,0,1-.695,3.472c-20.138-4.861-44.1,1.389-44.444,1.736Zm83.332-13.888c-.695,0-1.389-.347-1.389-1.042a2.3,2.3,0,0,1,.695-2.43c.695-.347,21.18-10.764,31.6-13.888a1.647,1.647,0,0,1,1.042,3.125c-10.069,3.125-30.9,13.541-30.9,13.888A1.276,1.276,0,0,1,119.789,139.28Zm-83.332-6.944a1.772,1.772,0,0,1-1.736-1.389c-.347-1.042.347-1.736,1.389-2.083s25-6.6,45.832-1.736a1.77,1.77,0,1,1-.695,3.472c-20.138-4.861-44.1,1.389-44.444,1.736Zm83.332-13.888c-.695,0-1.389-.347-1.389-1.042a2.3,2.3,0,0,1,.695-2.43c.695-.347,21.18-10.764,31.6-13.888a1.647,1.647,0,0,1,1.042,3.125c-10.069,3.125-30.9,13.541-30.9,13.888A1.276,1.276,0,0,1,119.789,118.447ZM36.458,111.5a1.772,1.772,0,0,1-1.736-1.389c-.347-1.042.347-1.736,1.389-2.083s25-6.6,45.832-1.736a1.77,1.77,0,0,1-.695,3.472c-20.138-4.861-44.1,1.389-44.444,1.736Zm83.332-13.888c-.695,0-1.389-.347-1.389-1.042a2.3,2.3,0,0,1,.695-2.43c.695-.347,21.18-10.764,31.6-13.888a1.647,1.647,0,0,1,1.042,3.125c-10.069,3.125-30.9,13.541-30.9,13.888A1.276,1.276,0,0,1,119.789,97.614ZM36.458,90.67a1.772,1.772,0,0,1-1.736-1.389c-.347-1.042.347-1.736,1.389-2.083s25-6.6,45.832-1.736a1.77,1.77,0,0,1-.695,3.472C61.11,84.073,37.152,90.322,36.8,90.67Zm83.332-13.888c-.695,0-1.389-.347-1.389-1.042a2.3,2.3,0,0,1,.695-2.43c.695-.347,21.18-10.764,31.6-13.888a1.647,1.647,0,0,1,1.042,3.125c-10.069,3.125-30.9,13.541-30.9,13.888A1.276,1.276,0,0,1,119.789,76.782ZM36.458,69.837a1.772,1.772,0,0,1-1.736-1.389c-.347-1.042.347-1.736,1.389-2.083s25-6.6,45.832-1.736a1.77,1.77,0,0,1-.695,3.472C61.11,63.24,37.152,69.49,36.8,69.837Zm83.332-13.888c-.695,0-1.389-.347-1.389-1.042a2.3,2.3,0,0,1,.695-2.43c.695-.347,21.18-10.764,31.6-13.888a1.647,1.647,0,1,1,1.042,3.125c-10.069,3.125-30.9,13.541-30.9,13.888A1.276,1.276,0,0,1,119.789,55.949Z"/>
  </g>
</svg>
