<svg xmlns="http://www.w3.org/2000/svg" width="176.081" height="163.141" viewBox="0 0 176.081 163.141">
  <g id="Group_3645" data-name="Group 3645" transform="translate(-284.444 -68.893)">
    <ellipse id="Ellipse_1974" data-name="Ellipse 1974" cx="74.694" cy="47.585" rx="74.694" ry="47.585" transform="matrix(0.897, -0.443, 0.443, 0.897, 284.444, 146.694)" fill="#deecea"/>
    <g id="Group_3644" data-name="Group 3644">
      <g id="Group_3642" data-name="Group 3642">
        <path id="Path_13400" data-name="Path 13400" d="M389.01,153.755l-43.145,53.71-1.1,1.07L329.7,124.894l43.872-52.432Z" fill="#258270"/>
        <path id="Path_13401" data-name="Path 13401" d="M330.333,127.458l14.428,81.077-16.82-7.808-14.319-80.461Z" fill="#258270"/>
        <path id="Path_13402" data-name="Path 13402" d="M373.567,72.462c-5.572,7.39-38.971,51.662-43.236,54.985l-.009.013c-3.933,3.083-12.8-2.635-15.743-5.833l0-.011a4,4,0,0,1-.944-1.352c-.626-1.988,29.632-40.061,38.671-51.371a9.914,9.914,0,0,0,1.158,1.723,10.6,10.6,0,0,0,3.244,2.736c3.852,2.071,8.616,1.938,12.789.583a29.5,29.5,0,0,0,3.954-1.623A.1.1,0,0,1,373.567,72.462Z" fill="#b3d3cd"/>
        <path id="Path_13403" data-name="Path 13403" d="M328.785,123.663c-1.673.248-6.011-1.932-8.7-4.231,3.793-5.8,16.429-22.317,33.5-43.759a14.969,14.969,0,0,0,2.119,1.4,18.357,18.357,0,0,0,8.153,2.119C344.766,104.362,331.353,121.383,328.785,123.663Z" fill="#f0f6f5"/>
        <path id="Path_13404" data-name="Path 13404" d="M338.033,127.115l30.934-36.97,11.687,61.526L349.34,190.652Z" fill="#f6f6f6" opacity="0.08"/>
        <path id="Path_13405" data-name="Path 13405" d="M346.37,129.336l18-21.508,7.932,41.757-18.276,22.751Z" fill="#f6f6f6" opacity="0.27" style="mix-blend-mode: overlay;isolation: isolate"/>
        <path id="Path_13406" data-name="Path 13406" d="M337.287,166.534l7.474,42-16.82-7.808-7.324-41.154C325.552,167.987,332.97,167.654,337.287,166.534Z" fill="#258270"/>
        <path id="Path_13407" data-name="Path 13407" d="M314.579,121.627l0-.011a4,4,0,0,1-.944-1.352c-.626-1.988,29.632-40.061,38.671-51.371a9.914,9.914,0,0,0,1.158,1.723Z" fill="#258270"/>
      </g>
      <g id="Group_3643" data-name="Group 3643">
        <path id="Path_13408" data-name="Path 13408" d="M424.371,189.168l-56.444,39.5-1.358.719,8.925-84.517L432.278,106.8Z" fill="#21927e"/>
        <path id="Path_13409" data-name="Path 13409" d="M375.389,147.511l-8.821,81.877-13.966-12.2,8.754-81.255Z" fill="#258270"/>
        <path id="Path_13410" data-name="Path 13410" d="M432.278,106.8c-7.416,5.538-51.864,38.7-56.888,40.7l-.012.01c-4.638,1.86-11.555-6.11-13.483-10V137.5a3.989,3.989,0,0,1-.528-1.562c-.046-2.084,39.653-30.176,51.494-38.507a9.94,9.94,0,0,0,.629,1.978,10.6,10.6,0,0,0,2.35,3.534c3.119,3.066,7.73,4.271,12.115,4.136a29.57,29.57,0,0,0,4.251-.452A.1.1,0,0,1,432.278,106.8Z" fill="#b3d3cd"/>
        <path id="Path_13411" data-name="Path 13411" d="M374.965,143.434c-1.676-.229-5.232-3.536-7.17-6.5,5.264-4.51,22.014-16.831,44.4-32.644a14.918,14.918,0,0,0,1.642,1.937,18.339,18.339,0,0,0,7.235,4.315C395.7,129.373,378.068,141.964,374.965,143.434Z" fill="#f0f6f5"/>
        <path id="Path_13412" data-name="Path 13412" d="M382.878,149.335l40.038-26.845-5.985,62.339L375.965,213.5Z" fill="#f6f6f6" opacity="0.08"/>
        <path id="Path_13413" data-name="Path 13413" d="M390.261,153.8l23.293-15.617-4.062,42.31-23.909,16.732Z" fill="#f2ddb0" opacity="0.27" style="mix-blend-mode: overlay;isolation: isolate"/>
        <path id="Path_13414" data-name="Path 13414" d="M371.138,186.972l-4.569,42.416-13.966-12.2,4.477-41.561C359.465,185.086,366.681,186.841,371.138,186.972Z" fill="#258270"/>
        <path id="Path_13415" data-name="Path 13415" d="M361.895,137.507V137.5a3.989,3.989,0,0,1-.528-1.562c-.046-2.084,39.653-30.176,51.494-38.507a9.94,9.94,0,0,0,.629,1.978Z" fill="#258270"/>
      </g>
    </g>
  </g>
</svg>
