<svg xmlns="http://www.w3.org/2000/svg" width="38.609" height="39.216" viewBox="0 0 38.609 39.216">
  <path id="good" d="M38.638,16.8a2.809,2.809,0,0,0-1.74-1.2,2.825,2.825,0,0,0-1.884-4.072,2.832,2.832,0,0,0-.146-2.878,2.807,2.807,0,0,0-1.74-1.2,2.828,2.828,0,0,0-4.065-3.673L26.248,5.647a17.594,17.594,0,0,0-4.754-1.609,13.071,13.071,0,0,0-1.814-2.195L18.516.715a2.549,2.549,0,0,0-3.9,3.237l.09.14A17.739,17.739,0,1,0,34.927,27.5a.61.61,0,1,0-1.147-.414A16.541,16.541,0,0,1,13.022,37.156l4.961-3.285h0l4.123-2.73h0a1.663,1.663,0,0,0,.469-2.3l-.054-.083.8-.53a2.716,2.716,0,0,1,1.935-.418,3.932,3.932,0,0,0,2.8-.606L34.7,22.8a16.553,16.553,0,0,1-.225,1.713.61.61,0,0,0,.488.711.6.6,0,0,0,.112.01.61.61,0,0,0,.6-.5,17.835,17.835,0,0,0,.291-2.773l1.872-1.24a2.829,2.829,0,0,0,.8-3.92ZM25.064,6.431,23.2,7.665l-.367-.988a13.05,13.05,0,0,0-.523-1.212A16.368,16.368,0,0,1,25.064,6.431ZM5.755,10.659a16.521,16.521,0,0,1,9.535-5.437,7.533,7.533,0,0,1,.38,4.562l-1.487,6.423a1.66,1.66,0,0,0-2.128-.248L7.845,18.748h0L1.77,22.77c-.033-.428-.051-.86-.051-1.292A16.514,16.514,0,0,1,5.755,10.659Zm15.87,19.182a.442.442,0,0,1-.19.282h0l-3.621,2.4L11.092,22.5a.61.61,0,0,0-1.013.679L16.8,33.194l-5.17,3.424A16.57,16.57,0,0,1,1.93,24.1L8.01,20.09l.7,1.044a.61.61,0,1,0,1.013-.679l-.7-1.037,3.7-2.443a.444.444,0,0,1,.615.125L21.56,29.508A.44.44,0,0,1,21.625,29.841ZM37.857,18.682a1.6,1.6,0,0,1-.688,1.021l-2.14,1.417h0l-7.639,5.059a2.715,2.715,0,0,1-1.935.418,3.934,3.934,0,0,0-2.8.606l-.8.53L15.12,17.574l1.74-7.514a8.761,8.761,0,0,0-.641-5.751.6.6,0,0,0-.026-.054,8.626,8.626,0,0,0-.558-.976,1.329,1.329,0,0,1,2.033-1.688L18.832,2.72A11.914,11.914,0,0,1,21.691,7.1l.634,1.709,0,.009,0,.012c0,.01.009.02.013.028a.6.6,0,0,0,.042.075.609.609,0,0,0,.845.172l6.5-4.307a1.609,1.609,0,0,1,1.777,2.683l-.565.374h0l-1.259.834,0,0-.02.015a.609.609,0,0,0,.7,1l1.26-.835A1.609,1.609,0,0,1,33.4,11.556l-1.824,1.208a.61.61,0,1,0,.673,1.017l.282-.187.977-.647a1.609,1.609,0,0,1,1.777,2.683l-.911.6-.014.01-.9.6a.61.61,0,1,0,.673,1.017l.282-.187h0l.977-.647a1.608,1.608,0,0,1,2.464,1.661Zm0,0" transform="translate(-0.5 0)" fill="#fff"/>
</svg>
