<svg xmlns="http://www.w3.org/2000/svg" xmlns:xlink="http://www.w3.org/1999/xlink" width="24.628" height="24.628" viewBox="0 0 24.628 24.628">
  <defs>
    <linearGradient id="linear-gradient" y1="0.5" x2="1" y2="0.5" gradientUnits="objectBoundingBox">
      <stop offset="0" stop-color="#4fb19f"/>
      <stop offset="0.064" stop-color="#49b4a1"/>
      <stop offset="0.293" stop-color="#2ca08c"/>
      <stop offset="0.554" stop-color="#21927e"/>
      <stop offset="0.796" stop-color="#186c5c"/>
      <stop offset="1" stop-color="#186c5c"/>
    </linearGradient>
  </defs>
  <path id="refer" d="M12.068,13.079c.081,0,.163.005.245.005s.152,0,.228,0a10.594,10.594,0,0,1,4.914,1.326.962.962,0,0,0,.936-1.681,12.422,12.422,0,0,0-2.161-.945,6.542,6.542,0,1,0-7.83,0A12.51,12.51,0,0,0,.062,21.1a2.923,2.923,0,0,0,2.857,3.525h7.519a.962.962,0,0,0,0-1.924H2.919a.978.978,0,0,1-.77-.366,1,1,0,0,1-.2-.843A10.629,10.629,0,0,1,12.068,13.079ZM7.7,6.542a4.618,4.618,0,1,1,4.847,4.612l-.229,0-.225,0A4.623,4.623,0,0,1,7.7,6.542ZM24.628,17.886a2.378,2.378,0,0,1-.707,1.7l-1.789,1.779A.962.962,0,1,1,20.774,20l1.2-1.193H16.522a1.948,1.948,0,0,0-.023,3.9.962.962,0,0,1,0,1.924,3.811,3.811,0,0,1-2.73-1.138,3.88,3.88,0,0,1,2.753-6.606h5.364l-1.109-1.1a.962.962,0,1,1,1.353-1.368l1.787,1.767A2.378,2.378,0,0,1,24.628,17.886Zm0,0" transform="translate(0)" fill="url(#linear-gradient)"/>
</svg>
