<svg xmlns="http://www.w3.org/2000/svg" xmlns:xlink="http://www.w3.org/1999/xlink" width="184.328" height="108.009" viewBox="0 0 184.328 108.009">
  <defs>
    <linearGradient id="linear-gradient" y1="0.5" x2="1" y2="0.5" gradientUnits="objectBoundingBox">
      <stop offset="0" stop-color="#267f6e"/>
      <stop offset="1" stop-color="#186c5c"/>
    </linearGradient>
    <linearGradient id="linear-gradient-2" y1="0.5" x2="1" y2="0.5" gradientUnits="objectBoundingBox">
      <stop offset="0" stop-color="#288c79"/>
      <stop offset="1" stop-color="#166656"/>
    </linearGradient>
    <linearGradient id="linear-gradient-3" x1="0" y1="0.501" y2="0.501" xlink:href="#linear-gradient-2"/>
    <linearGradient id="linear-gradient-4" x1="0.973" y1="0.535" x2="0.122" y2="0.435" gradientUnits="objectBoundingBox">
      <stop offset="0" stop-color="#c1c1c1"/>
      <stop offset="1" stop-color="#e7e7e7"/>
    </linearGradient>
    <linearGradient id="linear-gradient-5" x1="1.009" y1="0.513" x2="0.046" y2="0.418" gradientUnits="objectBoundingBox">
      <stop offset="0" stop-color="#d0d0d0"/>
      <stop offset="1" stop-color="#f6f6f6"/>
    </linearGradient>
    <linearGradient id="linear-gradient-6" x1="0.531" y1="0.445" x2="0.982" y2="0.521" gradientUnits="objectBoundingBox">
      <stop offset="0" stop-color="#fff"/>
      <stop offset="1" stop-color="#dcdcdc"/>
    </linearGradient>
    <linearGradient id="linear-gradient-7" y1="0.5" x2="1" y2="0.5" gradientUnits="objectBoundingBox">
      <stop offset="0" stop-color="#9c9c9c"/>
      <stop offset="1" stop-color="#e2e2e2"/>
    </linearGradient>
    <linearGradient id="linear-gradient-8" x1="0.025" y1="0.508" x2="0.957" y2="0.429" gradientUnits="objectBoundingBox">
      <stop offset="0" stop-color="#b3b3b3"/>
      <stop offset="1" stop-color="#e7e7e7"/>
    </linearGradient>
    <linearGradient id="linear-gradient-9" x1="0.057" y1="0.679" x2="0.408" y2="0.506" gradientUnits="objectBoundingBox">
      <stop offset="0" stop-color="#c1c1c1"/>
      <stop offset="1" stop-color="#dcdcdc"/>
    </linearGradient>
    <linearGradient id="linear-gradient-10" x1="0.5" y1="0.045" x2="0.5" y2="1.014" xlink:href="#linear-gradient-2"/>
  </defs>
  <g id="Group_3641" data-name="Group 3641" transform="translate(-133.39 -151.605)">
    <g id="Group_3640" data-name="Group 3640" transform="translate(133.39 177.031)">
      <g id="Group_3638" data-name="Group 3638">
        <g id="Group_3634" data-name="Group 3634" transform="translate(3.557 10.22)">
          <g id="Group_3633" data-name="Group 3633">
            <path id="Path_13386" data-name="Path 13386" d="M226.124,269.748c7.913,0,10.067-4.73,10.067-4.73s30.2-5.811,74.617,2.019a3.212,3.212,0,0,0,3.657-2.125,10.664,10.664,0,0,0,.124-3.676c-6.543-12.762-20.8-36.336-36.65-57.606a5.2,5.2,0,0,0-3.394-2c-7.012-1.073-29.771-3.876-48.072,1.582h-.323c-18.3-5.457-41.06-2.655-48.072-1.582a5.2,5.2,0,0,0-3.394,2c-15.845,21.27-30.12,44.527-36.663,57.288a11.021,11.021,0,0,0,0,3.288c.379,2.553,1.774,3.186,3.789,2.831,44.421-7.83,74.617-2.019,74.617-2.019s2.154,4.73,10.067,4.73" transform="translate(-137.89 -197.385)" fill="url(#linear-gradient)"/>
            <path id="Path_13387" data-name="Path 13387" d="M226.158,266.507c7.266,0,9.134-4.73,9.134-4.73s31.128-5.811,75.549,2.019a3.089,3.089,0,0,0,3.463-4.334c-6.543-12.762-20.487-37.8-36.332-59.072a5.2,5.2,0,0,0-3.394-2.005c-7.012-1.073-29.771-3.876-48.072,1.582h-.323c-18.3-5.458-41.06-2.656-48.072-1.582a5.2,5.2,0,0,0-3.394,2.005c-15.845,21.27-29.789,46.31-36.332,59.072a3.089,3.089,0,0,0,3.463,4.334c44.421-7.829,76.482-2.019,76.482-2.019s1.009,4.73,8.2,4.73" transform="translate(-137.925 -196.705)" fill="url(#linear-gradient-2)"/>
          </g>
          <path id="Path_13388" data-name="Path 13388" d="M226.5,263.542s34.5-15.025,88.19-1.428a10.121,10.121,0,0,0-.1-1.556l-.006-.013a2.948,2.948,0,0,0-.311-1.084c-.729-1.423-1.555-3.006-2.461-4.711l-.047-.057.018,0c-7.224-13.6-19.782-35.433-33.843-54.307a5.2,5.2,0,0,0-3.394-2.005c-6.707-1.027-27.814-3.629-45.653.92a28.952,28.952,0,0,0-2.394,2.109,28.751,28.751,0,0,0-2.224-1.971c-17.95-4.744-39.422-2.094-46.2-1.058a5.2,5.2,0,0,0-3.394,2.005c-14.093,18.918-26.677,40.81-33.892,54.4.147-.032.3-.067.442-.1l-1.116,1.372c-.635,1.207-1.227,2.347-1.766,3.4a3.025,3.025,0,0,0-.21.545l-.12.232a5.851,5.851,0,0,0-.105,1.974C191.827,248.443,226.5,263.542,226.5,263.542Z" transform="translate(-137.89 -196.705)" opacity="0.15" style="mix-blend-mode: multiply;isolation: isolate"/>
        </g>
        <path id="Path_13389" data-name="Path 13389" d="M249.9,288.26c-.066,0-.123-.006-.187-.006s-.122.006-.187.006Z" transform="translate(-157.737 -205.678)" fill="url(#linear-gradient-3)"/>
        <g id="Group_3637" data-name="Group 3637">
          <g id="Group_3635" data-name="Group 3635">
            <path id="Path_13390" data-name="Path 13390" d="M225.554,262.075s-36.21-19.727-92.164-4.334c0,0,31.573-38.572,45.417-56.969,0,0,30.695-16.167,46.748-.354Z" transform="translate(-133.39 -185.809)" fill="url(#linear-gradient-4)"/>
            <path id="Path_13391" data-name="Path 13391" d="M225.8,259.4s-37.981-23.318-91.232-9.642c0,0,28.412-34.5,45.363-56.969,0,0,29.816-10.86,45.869,4.954Z" transform="translate(-133.637 -184.902)" fill="url(#linear-gradient-5)"/>
            <path id="Path_13392" data-name="Path 13392" d="M225.8,255.617s-30.334-22.57-91.232-13.181c0,0,27.534-34.5,44.484-56.969,0,0,30.695-7.321,46.748,8.492Z" transform="translate(-133.637 -183.775)" fill="url(#linear-gradient-6)"/>
          </g>
          <g id="Group_3636" data-name="Group 3636" transform="translate(92.164)">
            <path id="Path_13393" data-name="Path 13393" d="M250,262.075s36.209-19.727,92.164-4.334c0,0-31.573-38.572-45.417-56.969,0,0-30.694-16.167-46.747-.354Z" transform="translate(-250 -185.809)" fill="url(#linear-gradient-7)"/>
            <path id="Path_13394" data-name="Path 13394" d="M250,259.4s37.981-23.318,91.232-9.642c0,0-28.412-34.5-45.363-56.969,0,0-29.816-10.86-45.869,4.954Z" transform="translate(-250 -184.902)" fill="url(#linear-gradient-8)"/>
            <path id="Path_13395" data-name="Path 13395" d="M250,255.617s30.334-22.57,91.232-13.181c0,0-27.534-34.5-44.485-56.969,0,0-30.694-7.321-46.747,8.492Z" transform="translate(-250 -183.775)" fill="url(#linear-gradient-9)"/>
          </g>
        </g>
      </g>
      <g id="Group_3639" data-name="Group 3639" transform="translate(46.862 0.002)">
        <path id="Path_13396" data-name="Path 13396" d="M247.08,205.681c6.226,0,7.365-7.99,7.871-11.1a13.765,13.765,0,0,1,3.139-6.709,31.946,31.946,0,0,0-11.01,6.947,31.954,31.954,0,0,0-11.01-6.947,13.765,13.765,0,0,1,3.139,6.709C239.714,197.691,241.094,205.681,247.08,205.681Z" transform="translate(-201.778 -184.636)" opacity="0.15" style="mix-blend-mode: multiply;isolation: isolate"/>
        <path id="Path_13397" data-name="Path 13397" d="M237.984,240.969s26.359-21.159,36-29.762c6.29-5.614,9.3-9.706,9.3-16.464a17.366,17.366,0,0,0-3.189-10.113,81.665,81.665,0,0,0-11.241-.853,12.349,12.349,0,0,1,6.5,10.965c0,4.561-1.574,7.216-7.327,12.35-6.674,5.957-21.772,18.254-30.04,24.944-8.268-6.689-23.365-18.986-30.04-24.944-5.752-5.134-7.327-7.789-7.327-12.35a12.349,12.349,0,0,1,6.5-10.965,81.656,81.656,0,0,0-11.241.853,17.366,17.366,0,0,0-3.189,10.113c0,6.758,3.014,10.85,9.3,16.464C211.625,219.811,237.984,240.969,237.984,240.969Z" transform="translate(-192.682 -183.778)" opacity="0.15" style="mix-blend-mode: multiply;isolation: isolate"/>
      </g>
    </g>
    <path id="Path_13398" data-name="Path 13398" d="M250,174.284" transform="translate(-24.446 -4.754)" fill="#fff" stroke="#000" stroke-miterlimit="10" stroke-width="0.901"/>
    <path id="Path_13399" data-name="Path 13399" d="M260.513,159.54c8.6,0,14.837,6.98,14.837,16.6,0,5.81-1.574,9.191-7.327,15.731-6.674,7.587-21.772,23.251-30.04,31.772-8.268-8.52-23.365-24.183-30.04-31.772-5.752-6.539-7.327-9.921-7.327-15.731,0-9.616,6.24-16.6,14.837-16.6,7.244,0,13.546,6.576,14.659,15.3.506,3.962,1.885,14.14,7.871,14.14,6.226,0,7.365-10.177,7.871-14.14,1.113-8.72,7.415-15.3,14.658-15.3m0-7.935c-11.451,0-20.924,9.655-22.529,22.227-1.605-12.572-11.079-22.227-22.53-22.227-12.576,0-22.772,10.166-22.772,24.531,0,8.609,3.014,13.82,9.3,20.971,9.638,10.958,36,37.907,36,37.907s26.359-26.95,36-37.907c6.29-7.151,9.3-12.363,9.3-20.971,0-14.366-10.2-24.531-22.773-24.531Z" transform="translate(-12.43 0)" fill="url(#linear-gradient-10)"/>
  </g>
</svg>
