<svg xmlns="http://www.w3.org/2000/svg" width="152.987" height="134.938" viewBox="0 0 152.987 134.938">
  <g id="Group_3658" data-name="Group 3658" transform="translate(-57.108 -282.904)">
    <g id="Group_3657" data-name="Group 3657">
      <g id="Group_3652" data-name="Group 3652">
        <g id="Group_3650" data-name="Group 3650">
          <g id="Group_3649" data-name="Group 3649">
            <path id="Path_13420" data-name="Path 13420" d="M146.464,394.161v23.477l63.629-16.419v-22.4Z" fill="#186c5c"/>
            <path id="Path_13421" data-name="Path 13421" d="M81.252,332.163l65.208,62,62.683-15.117.952-.23-66.19-58.826L82.424,331.933Z" fill="#52a091"/>
            <path id="Path_13422" data-name="Path 13422" d="M79.357,353.574l66.928,64.115.179-.051V394.161L81.249,332.168Z" fill="#186c5c"/>
            <path id="Path_13423" data-name="Path 13423" d="M80.959,335.455l65.505,61.336,61.072-14.728v17.175l-60.827,15.316L79.645,350.311Z" fill="#c3ded8"/>
            <path id="Path_13424" data-name="Path 13424" d="M204.978,397.245V385.31l-57.914,13.966a2.456,2.456,0,0,1-.6.072,2.554,2.554,0,0,1-1.748-.692L83.045,340.912l-.744,8.4,65.156,62.418Z" fill="#f3f8f7"/>
            <path id="Path_13425" data-name="Path 13425" d="M146.285,417.689l.179.153v-.2Z" fill="#e3e5e5"/>
            <path id="Path_13426" data-name="Path 13426" d="M81.252,332.163l65.208,62,62.683-15.117L82.424,331.933Z" fill="#2f8c7a"/>
            <path id="Path_13427" data-name="Path 13427" d="M195.408,375.147l-53.57-47.611-45.9,8.915,52.586,50Z" fill="#f9fafa" opacity="0.08"/>
            <path id="Path_13428" data-name="Path 13428" d="M180.72,371.475l-40.949-36.394-29.142,5.661,39.963,38Z" fill="#f9fafa" opacity="0.27" style="mix-blend-mode: overlay;isolation: isolate"/>
          </g>
        </g>
        <g id="Group_3651" data-name="Group 3651">
          <path id="Path_13429" data-name="Path 13429" d="M197.333,390.887l-6.513,5.783.814-4.716Z" fill="#d1d3d4"/>
          <path id="Path_13430" data-name="Path 13430" d="M197.333,390.887V400.1l-2.619-3.68-1.911,4.911-1.169-9.373Z" fill="#cbb176"/>
        </g>
      </g>
      <path id="Path_13431" data-name="Path 13431" d="M109.839,382.775l11.6,11.111,50.29-49.168-14.121-12.55L100.759,373.59Z" fill="#2f8c7a" opacity="0.49" style="mix-blend-mode: multiply;isolation: isolate"/>
      <g id="Group_3656" data-name="Group 3656">
        <g id="Group_3654" data-name="Group 3654">
          <g id="Group_3653" data-name="Group 3653">
            <path id="Path_13432" data-name="Path 13432" d="M120.738,357.074v23.477L57.109,364.132v-22.4Z" fill="#186c5c"/>
            <path id="Path_13433" data-name="Path 13433" d="M185.951,295.076l-65.208,62L58.06,341.961l-.952-.23L123.3,282.9l61.481,11.942Z" fill="#52a091"/>
            <path id="Path_13434" data-name="Path 13434" d="M187.846,316.487,120.917,380.6l-.179-.051V357.074l65.215-61.992Z" fill="#186c5c"/>
            <path id="Path_13435" data-name="Path 13435" d="M186.244,298.368,120.738,359.7,59.667,344.976v17.175l60.827,15.316,67.063-64.243Z" fill="#c3ded8"/>
            <path id="Path_13436" data-name="Path 13436" d="M62.224,360.158V348.223l57.915,13.966a2.441,2.441,0,0,0,.6.072,2.552,2.552,0,0,0,1.748-.692l61.671-57.744.744,8.4-65.156,62.418Z" fill="#f3f8f7"/>
            <path id="Path_13437" data-name="Path 13437" d="M120.917,380.6l-.179.153v-.2Z" fill="#e3e5e5"/>
            <path id="Path_13438" data-name="Path 13438" d="M185.951,295.076l-65.208,62L58.06,341.961l126.719-47.115Z" fill="#2f8c7a"/>
            <path id="Path_13439" data-name="Path 13439" d="M71.795,338.06l53.57-47.611,45.9,8.916-52.586,50Z" fill="#f9fafa" opacity="0.08"/>
            <path id="Path_13440" data-name="Path 13440" d="M86.482,334.388l40.95-36.394,29.141,5.661-39.963,38Z" fill="#f9fafa" opacity="0.27" style="mix-blend-mode: overlay;isolation: isolate"/>
          </g>
        </g>
        <g id="Group_3655" data-name="Group 3655">
          <path id="Path_13441" data-name="Path 13441" d="M69.87,353.8l6.513,5.783-.814-4.716Z" fill="#e2e3e3"/>
          <path id="Path_13442" data-name="Path 13442" d="M69.87,353.8v9.209l2.619-3.68,1.911,4.911,1.169-9.373Z" fill="#cbb176"/>
        </g>
      </g>
    </g>
    <path id="Path_13443" data-name="Path 13443" d="M198.062,317.842a23.316,23.316,0,0,1,.3,34.479" fill="none" stroke="#cbb176" stroke-linecap="round" stroke-linejoin="round" stroke-width="2" stroke-dasharray="5"/>
    <path id="Path_13444" data-name="Path 13444" d="M112.06,407.613a23.316,23.316,0,0,1-25.578-23.122" fill="none" stroke="#cbb176" stroke-linecap="round" stroke-linejoin="round" stroke-width="2" stroke-dasharray="5"/>
  </g>
</svg>
