<svg xmlns="http://www.w3.org/2000/svg" width="32.26" height="33.353" viewBox="0 0 32.26 33.353">
  <g id="printer" transform="translate(0.25 0.25)">
    <g id="Group_2263" data-name="Group 2263">
      <path id="Path_11702" data-name="Path 11702" d="M39.91,22.99V10.875a2.767,2.767,0,0,0-2.762-2.762H33.822V1.777A1.78,1.78,0,0,0,32.045,0H16.015a1.78,1.78,0,0,0-1.777,1.777V8.113H10.912A2.767,2.767,0,0,0,8.15,10.875V22.99a2.767,2.767,0,0,0,2.762,2.762h3.326v5.323a1.78,1.78,0,0,0,1.777,1.777H32.045a1.78,1.78,0,0,0,1.777-1.777v-5.33h3.326A2.757,2.757,0,0,0,39.91,22.99ZM15.565,1.777a.449.449,0,0,1,.449-.449H32.045a.449.449,0,0,1,.449.449V8.113H15.565ZM32.5,31.076a.449.449,0,0,1-.449.449H16.015a.449.449,0,0,1-.449-.449V17.6H32.495V31.076Zm6.081-8.086a1.436,1.436,0,0,1-1.435,1.435H33.822V16.936a.661.661,0,0,0-.664-.664H14.9a.661.661,0,0,0-.664.664v7.489H10.912A1.436,1.436,0,0,1,9.478,22.99V10.875A1.436,1.436,0,0,1,10.912,9.44H37.148a1.436,1.436,0,0,1,1.435,1.435V22.99Z" transform="translate(-8.15 0)" fill="#fff" stroke="#fff" stroke-width="0.5"/>
      <path id="Path_11703" data-name="Path 11703" d="M69.314,181.6a.664.664,0,1,0,.469,1.133.676.676,0,0,0,.194-.469.689.689,0,0,0-.194-.469A.676.676,0,0,0,69.314,181.6Z" transform="translate(-64.594 -169.424)" fill="#fff" stroke="#fff" stroke-width="0.5"/>
      <path id="Path_11704" data-name="Path 11704" d="M165.714,357.728h9.407a.664.664,0,1,0,0-1.328h-9.407a.664.664,0,1,0,0,1.328Z" transform="translate(-154.53 -332.505)" fill="#fff" stroke="#fff" stroke-width="0.5"/>
      <path id="Path_11705" data-name="Path 11705" d="M165.714,413.827h9.407a.664.664,0,1,0,0-1.327h-9.407a.664.664,0,1,0,0,1.327Z" transform="translate(-154.53 -384.843)" fill="#fff" stroke="#fff" stroke-width="0.5"/>
      <path id="Path_11706" data-name="Path 11706" d="M165.714,301.628h9.407a.664.664,0,1,0,0-1.328h-9.407a.664.664,0,1,0,0,1.328Z" transform="translate(-154.53 -280.166)" fill="#fff" stroke="#fff" stroke-width="0.5"/>
    </g>
  </g>
</svg>
