<svg width="130" height="128" viewBox="0 0 130 128" fill="none" xmlns="http://www.w3.org/2000/svg">
<path d="M115.837 12.9827C99.5834 4.37847 81.3509 0.204311 62.9724 0.879786C44.594 1.55526 26.7172 7.05657 11.1388 16.8308C7.91581 18.8528 5.28173 21.6876 3.50148 25.0502C1.72122 28.4128 0.857529 32.1847 0.996993 35.987L2.7593 83.9283C2.89918 87.7306 4.03751 91.4291 6.05978 94.6521C8.08205 97.875 10.917 100.509 14.2799 102.289L56.6795 124.734C60.042 126.513 63.8136 127.377 67.6155 127.237C71.4175 127.097 75.1157 125.959 78.3385 123.938L118.976 98.4409C122.199 96.4187 124.833 93.5836 126.614 90.2207C128.394 86.8578 129.257 83.0856 129.117 79.2831L127.356 31.3418C127.216 27.54 126.078 23.842 124.056 20.6193C122.034 17.3967 119.199 14.763 115.837 12.9827Z" fill="#F4F4F4"/>
</svg>
