<svg id="text" xmlns="http://www.w3.org/2000/svg" width="35.629" height="35.629" viewBox="0 0 35.629 35.629">
  <path id="Path_12038" data-name="Path 12038" d="M6.327,0H1.044A1.044,1.044,0,0,0,0,1.044V6.327A1.044,1.044,0,0,0,1.044,7.371H6.327A1.044,1.044,0,0,0,7.371,6.327V1.044A1.044,1.044,0,0,0,6.327,0Z" fill="#fff"/>
  <path id="Path_12039" data-name="Path 12039" d="M412.4,0h-5.283a1.044,1.044,0,0,0-1.044,1.044V6.327a1.044,1.044,0,0,0,1.044,1.044H412.4a1.044,1.044,0,0,0,1.044-1.044V1.044A1.044,1.044,0,0,0,412.4,0Z" transform="translate(-377.817)" fill="#fff"/>
  <path id="Path_12040" data-name="Path 12040" d="M6.327,406.075H1.044A1.044,1.044,0,0,0,0,407.119V412.4a1.044,1.044,0,0,0,1.044,1.044H6.327A1.044,1.044,0,0,0,7.371,412.4v-5.283A1.044,1.044,0,0,0,6.327,406.075Z" transform="translate(0 -377.817)" fill="#fff"/>
  <path id="Path_12041" data-name="Path 12041" d="M412.4,406.075h-5.283a1.044,1.044,0,0,0-1.044,1.044V412.4a1.044,1.044,0,0,0,1.044,1.044H412.4a1.044,1.044,0,0,0,1.044-1.044v-5.283A1.044,1.044,0,0,0,412.4,406.075Z" transform="translate(-377.817 -377.817)" fill="#fff"/>
  <path id="Path_12042" data-name="Path 12042" d="M444.04,136.08h2.088v16.711H444.04Z" transform="translate(-413.14 -126.611)" fill="#fff"/>
  <path id="Path_12043" data-name="Path 12043" d="M135.92,37.96h16.712v2.088H135.92Z" transform="translate(-126.462 -35.318)" fill="#fff"/>
  <path id="Path_12044" data-name="Path 12044" d="M37.96,136.08h2.088v16.711H37.96Z" transform="translate(-35.318 -126.611)" fill="#fff"/>
  <path id="Path_12045" data-name="Path 12045" d="M135.92,444.04h16.712v2.088H135.92Z" transform="translate(-126.462 -413.14)" fill="#fff"/>
  <path id="Path_12046" data-name="Path 12046" d="M149.507,137.162H134.546a1.044,1.044,0,0,0-1.044,1.044V142a1.044,1.044,0,0,0,2.088,0V139.25h5.393v12.5h-1.945a1.044,1.044,0,0,0,0,2.088h5.978a1.044,1.044,0,1,0,0-2.088H143.07v-12.5h5.393V142a1.044,1.044,0,0,0,2.088,0v-3.8A1.044,1.044,0,0,0,149.507,137.162Z" transform="translate(-124.212 -127.617)" fill="#fff"/>
</svg>
