<svg id="twitter" xmlns="http://www.w3.org/2000/svg" xmlns:xlink="http://www.w3.org/1999/xlink" width="51.307" height="51.307" viewBox="0 0 51.307 51.307">
  <defs>
    <linearGradient id="linear-gradient" x1="0.332" y1="0.141" x2="0.585" y2="0.682" gradientUnits="objectBoundingBox">
      <stop offset="0" stop-color="#00c3ff"/>
      <stop offset="1" stop-color="#00b0ed"/>
    </linearGradient>
    <linearGradient id="linear-gradient-2" x1="0.738" y1="0.628" x2="-0.899" y2="-0.25" gradientUnits="objectBoundingBox">
      <stop offset="0" stop-color="#00b0ed" stop-opacity="0"/>
      <stop offset="1" stop-color="#00a2ce"/>
    </linearGradient>
    <linearGradient id="linear-gradient-3" x1="0.5" y1="0.27" x2="0.5" y2="0.926" xlink:href="#linear-gradient-2"/>
    <linearGradient id="linear-gradient-4" x1="0.946" y1="0.922" x2="0.342" y2="0.273" xlink:href="#linear-gradient-2"/>
  </defs>
  <path id="Path_12811" data-name="Path 12811" d="M42.13,50.429a154.97,154.97,0,0,1-32.953,0,9.342,9.342,0,0,1-8.3-8.3,154.967,154.967,0,0,1,0-32.953,9.342,9.342,0,0,1,8.3-8.3,154.967,154.967,0,0,1,32.953,0,9.342,9.342,0,0,1,8.3,8.3,154.967,154.967,0,0,1,0,32.953A9.342,9.342,0,0,1,42.13,50.429Zm0,0" fill="url(#linear-gradient)"/>
  <path id="Path_12812" data-name="Path 12812" d="M73.583,36.977a8.29,8.29,0,0,0-7.364-7.364,137.567,137.567,0,0,0-29.242,0,8.291,8.291,0,0,0-7.364,7.364,137.564,137.564,0,0,0,0,29.241,8.29,8.29,0,0,0,7.364,7.364,137.512,137.512,0,0,0,29.241,0,8.29,8.29,0,0,0,7.364-7.364A137.512,137.512,0,0,0,73.583,36.977Zm0,0" transform="translate(-25.945 -25.945)" fill="url(#linear-gradient-2)"/>
  <path id="Path_12813" data-name="Path 12813" d="M7.672,409.8q.053.532.11,1.064a9.342,9.342,0,0,0,8.3,8.3,154.967,154.967,0,0,0,32.953,0,9.342,9.342,0,0,0,8.3-8.3q.057-.532.11-1.064Zm0,0" transform="translate(-6.903 -368.738)" fill="url(#linear-gradient-3)"/>
  <path id="Path_12814" data-name="Path 12814" d="M138.864,137.85l-10.65-10.65a12.709,12.709,0,0,1-3.038,1.271,8.689,8.689,0,0,1-1.071.22,6.613,6.613,0,0,0-11.348,4.618c0,.132,0,.262.012.392a6.376,6.376,0,0,0,.12.93,18.116,18.116,0,0,1-11.207-4.481h0l-2.229-2.229s-2.615,4.564,1.23,8.027a7.334,7.334,0,0,0,.557.557l.049.054a6.479,6.479,0,0,1-2.9-.806,6.417,6.417,0,0,0,2.147,4.843l1.877,1.893a3.652,3.652,0,0,1-1.643-.157,6.32,6.32,0,0,0,1.893,2.975l2.629,2.643a13.61,13.61,0,0,1-7.972,1.775l15.948,15.583a155.143,155.143,0,0,0,16.43-.878,9.342,9.342,0,0,0,8.3-8.3A155.211,155.211,0,0,0,138.864,137.85Zm0,0" transform="translate(-87.568 -113.999)" fill="url(#linear-gradient-4)"/>
  <path id="Path_12815" data-name="Path 12815" d="M129.12,129.769a11.962,11.962,0,0,1-3.412.947l-.014-.08a6.348,6.348,0,0,0,2.517-3.436,12.709,12.709,0,0,1-3.038,1.271,8.764,8.764,0,0,1-1.071.22,6.613,6.613,0,0,0-11.348,4.618c0,.132,0,.262.012.392a6.375,6.375,0,0,0,.12.93,18.485,18.485,0,0,1-13.436-6.711s-2.944,5.137,2.006,8.647a6.9,6.9,0,0,1-3.07-.815s-.313,4.95,5.388,6.516a6.257,6.257,0,0,1-3.008.063,6.378,6.378,0,0,0,6.015,4.574,13.177,13.177,0,0,1-9.466,2.818,18.689,18.689,0,0,0,28.666-15.8q0-.193,0-.386c0-.076,0-.152,0-.229,0-.054,0-.107,0-.161A11.694,11.694,0,0,0,129.12,129.769Zm0,0" transform="translate(-87.564 -113.999)" fill="#fff"/>
</svg>
